<?xml version="1.0" encoding="utf-8"?>
<!-- Generator: Adobe Illustrator 21.0.0, SVG Export Plug-In . SVG Version: 6.00 Build 0)  -->
<svg version="1.1" id="Layer_1" xmlns="http://www.w3.org/2000/svg" xmlns:xlink="http://www.w3.org/1999/xlink" x="0px" y="0px"
	 viewBox="0 0 567 376" style="enable-background:new 0 0 567 376;" xml:space="preserve">
<style type="text/css">
	.st0{fill:#292D39;}
	.st1{fill:#282626;}
	.st2{fill:#E0AC9B;}
	.st3{fill:#BA8E83;}
	.st4{fill:#2F120D;}
	.st5{fill:#FFD2D4;}
	.st6{fill:#201028;}
	.st7{fill:#E0EEF7;}
	.st8{fill:#BC0A4F;}
	.st9{fill:#D86493;}
	.st10{fill:#FFFFFF;}
	.st11{fill:none;stroke:#1B2A67;stroke-width:0.8269;stroke-linecap:round;stroke-miterlimit:10;}
	.st12{fill:#353535;}
</style>
<g>
	<g>
		<path class="st0" d="M434.1,187.1c0,2.1-1.7,3.8-3.8,3.8c-2.1,0-3.8-1.7-3.8-3.8c0-2.1,1.7-3.8,3.8-3.8
			C432.4,183.4,434.1,185.1,434.1,187.1z M432.2,187.1c0-1.1-0.9-1.9-1.9-1.9c-1.1,0-1.9,0.9-1.9,1.9c0,1.1,0.9,1.9,1.9,1.9
			C431.4,189,432.2,188.2,432.2,187.1z"/>
		<g>
			<path class="st0" d="M497.7,48.7h-21.4c-0.5,0-0.9,0.4-0.9,0.9c0,0.5,0.4,0.9,0.9,0.9h21.4c0.5,0,0.9-0.4,0.9-0.9
				C498.6,49.1,498.2,48.7,497.7,48.7z"/>
			<path class="st0" d="M469.5,48.7h-4.2c-0.5,0-0.9,0.4-0.9,0.9c0,0.5,0.4,0.9,0.9,0.9h4.2c0.5,0,0.9-0.4,0.9-0.9
				C470.4,49.1,470,48.7,469.5,48.7z"/>
			<path class="st0" d="M487.6,56.1c0,0.5-0.4,0.9-0.9,0.9H484c-0.5,0-0.9-0.4-0.9-0.9c0-0.5,0.4-0.9,0.9-0.9h2.7
				C487.2,55.2,487.6,55.6,487.6,56.1z M480.3,56.1c0,0.5-0.4,0.9-0.9,0.9h-4.7c-0.5,0-0.9-0.4-0.9-0.9c0-0.5,0.4-0.9,0.9-0.9h4.7
				C479.8,55.2,480.3,55.6,480.3,56.1z M470.9,56.1c0,0.5-0.4,0.9-0.9,0.9h-4.7c-0.5,0-0.9-0.4-0.9-0.9c0-0.5,0.4-0.9,0.9-0.9h4.7
				C470.5,55.2,470.9,55.6,470.9,56.1z"/>
		</g>
		<g>
			<path class="st0" d="M150.2,111.3c-0.5,0-0.9,0.4-0.9,0.9v2.2c0,0.5,0.4,0.9,0.9,0.9c0.5,0,0.9-0.4,0.9-0.9v-2.2
				C151.1,111.7,150.7,111.3,150.2,111.3z"/>
			<path class="st0" d="M147.7,109.1h-2.2c-0.5,0-0.9,0.4-0.9,0.9c0,0.5,0.4,0.9,0.9,0.9h2.2c0.5,0,0.9-0.4,0.9-0.9
				C148.6,109.5,148.2,109.1,147.7,109.1z"/>
			<path class="st0" d="M150.2,104.6c-0.5,0-0.9,0.4-0.9,0.9v2.2c0,0.5,0.4,0.9,0.9,0.9c0.5,0,0.9-0.4,0.9-0.9v-2.2
				C151.1,105,150.7,104.6,150.2,104.6z"/>
			<path class="st0" d="M154.8,109h-2.2c-0.5,0-0.9,0.4-0.9,0.9c0,0.5,0.4,0.9,0.9,0.9h2.2c0.5,0,0.9-0.4,0.9-0.9
				C155.7,109.4,155.3,109,154.8,109z"/>
		</g>
		<g>
			<path class="st0" d="M385.9,50.6c-0.5,0-0.9,0.4-0.9,0.9v2.2c0,0.5,0.4,0.9,0.9,0.9c0.5,0,0.9-0.4,0.9-0.9v-2.2
				C386.8,51,386.4,50.6,385.9,50.6z"/>
			<path class="st0" d="M383.4,48.4h-2.2c-0.5,0-0.9,0.4-0.9,0.9c0,0.5,0.4,0.9,0.9,0.9h2.2c0.5,0,0.9-0.4,0.9-0.9
				C384.4,48.8,383.9,48.4,383.4,48.4z"/>
			<path class="st0" d="M385.9,43.9c-0.5,0-0.9,0.4-0.9,0.9V47c0,0.5,0.4,0.9,0.9,0.9c0.5,0,0.9-0.4,0.9-0.9v-2.2
				C386.8,44.3,386.4,43.9,385.9,43.9z"/>
			<path class="st0" d="M390.5,48.2h-2.2c-0.5,0-0.9,0.4-0.9,0.9c0,0.5,0.4,0.9,0.9,0.9h2.2c0.5,0,0.9-0.4,0.9-0.9
				C391.4,48.6,391,48.2,390.5,48.2z"/>
		</g>
		<g>
			<path class="st0" d="M298.5,4h-21.4c-0.5,0-0.9,0.4-0.9,0.9c0,0.5,0.4,0.9,0.9,0.9h21.4c0.5,0,0.9-0.4,0.9-0.9
				C299.4,4.4,299,4,298.5,4z"/>
			<path class="st0" d="M270.3,4h-4.2c-0.5,0-0.9,0.4-0.9,0.9c0,0.5,0.4,0.9,0.9,0.9h4.2c0.5,0,0.9-0.4,0.9-0.9
				C271.2,4.4,270.8,4,270.3,4z"/>
			<path class="st0" d="M288.4,11.5c0,0.5-0.4,0.9-0.9,0.9h-2.7c-0.5,0-0.9-0.4-0.9-0.9c0-0.5,0.4-0.9,0.9-0.9h2.7
				C288,10.5,288.4,10.9,288.4,11.5z M281.1,11.5c0,0.5-0.4,0.9-0.9,0.9h-4.7c-0.5,0-0.9-0.4-0.9-0.9c0-0.5,0.4-0.9,0.9-0.9h4.7
				C280.6,10.5,281.1,10.9,281.1,11.5z M271.7,11.5c0,0.5-0.4,0.9-0.9,0.9h-4.7c-0.5,0-0.9-0.4-0.9-0.9c0-0.5,0.4-0.9,0.9-0.9h4.7
				C271.3,10.5,271.7,10.9,271.7,11.5z"/>
		</g>
		<circle class="st0" cx="532.1" cy="102.2" r="3.3"/>
		<g>
			<path class="st0" d="M95,264.3h21.4c0.5,0,0.9-0.4,0.9-0.9c0-0.5-0.4-0.9-0.9-0.9H95c-0.5,0-0.9,0.4-0.9,0.9
				C94,263.9,94.4,264.3,95,264.3z"/>
			<path class="st0" d="M83.9,264.3h4.2c0.5,0,0.9-0.4,0.9-0.9c0-0.5-0.4-0.9-0.9-0.9h-4.2c-0.5,0-0.9,0.4-0.9,0.9
				C83,263.9,83.4,264.3,83.9,264.3z"/>
		</g>
		<path class="st0" d="M499.7,279.6c0,0,1.3,9.1-9.4,8.9c0,0,9.2,0.1,8.9,8.7c0,0,0.8-6.7,9.2-8.2
			C508.5,288.9,501.4,290.5,499.7,279.6z"/>
		<path class="st0" d="M550.6,150.8c0,0,1.3,9.1-9.4,8.9c0,0,9.2,0.1,8.9,8.7c0,0,0.8-6.7,9.2-8.2
			C559.4,160.1,552.3,161.8,550.6,150.8z"/>
		<path class="st0" d="M212.4,27.2c0,0,1.3,9.1-9.4,8.9c0,0,9.2,0.1,8.9,8.7c0,0,0.8-6.7,9.2-8.2C221.2,36.6,214.1,38.2,212.4,27.2z
			"/>
		<path class="st0" d="M120.6,52.4c0,0,1.3,9.1-9.4,8.9c0,0,9.2,0.1,8.9,8.7c0,0,0.8-6.7,9.2-8.2C129.4,61.8,122.3,63.4,120.6,52.4z
			"/>
		<path class="st0" d="M176.3,13.4c0,0,0.4,3.2-3.3,3.1c0,0,3.2,0,3.1,3c0,0,0.3-2.3,3.2-2.9C179.3,16.7,176.9,17.2,176.3,13.4z"/>
		<path class="st0" d="M343.3,123.1c0,0,0.4,3.2-3.3,3.1c0,0,3.2,0,3.1,3c0,0,0.3-2.3,3.2-2.9C346.3,126.4,343.8,126.9,343.3,123.1z
			"/>
		<path class="st0" d="M33.9,177.5c0,0,0.4,3.2-3.3,3.1c0,0,3.2,0,3.1,3c0,0,0.3-2.3,3.2-2.9C36.9,180.7,34.5,181.3,33.9,177.5z"/>
		<path class="st0" d="M311.5,263.3c0,0,0.4,3.2-3.3,3.1c0,0,3.2,0,3.1,3c0,0,0.3-2.3,3.2-2.9C314.6,266.5,312.1,267.1,311.5,263.3z
			"/>
		<g>
			<path class="st0" d="M185.2,212h-20.8c-2.7,0-4.8-2.2-4.8-4.8c0-2.6,2.1-4.7,4.7-4.8c0.1-4.1,3.4-7.3,7.5-7.3
				c2.5,0,4.9,1.3,6.3,3.4c2.8-0.4,5.3,1.4,6,3.9h1.2c2.7,0,4.8,2.2,4.8,4.8C190,209.8,187.8,212,185.2,212z M164.4,203.8
				c-1.9,0-3.4,1.5-3.4,3.4c0,1.9,1.5,3.4,3.4,3.4h20.8c1.9,0,3.4-1.5,3.4-3.4c0-1.9-1.5-3.4-3.4-3.4h-2.4l-0.1-0.6
				c-0.4-2.3-2.5-3.9-4.9-3.3l-0.5,0.1l-0.3-0.5c-1.1-1.9-3.1-3.1-5.3-3.1c-3.3,0-6,2.7-6,6c0,0.2,0,0.4,0,0.5l0.1,0.8H164.4z"/>
		</g>
		<g>
			<path class="st0" d="M556.2,36h-20.8c-2.7,0-4.8-2.2-4.8-4.8c0-2.6,2.1-4.7,4.7-4.8c0.1-4.1,3.4-7.3,7.5-7.3
				c2.5,0,4.9,1.3,6.3,3.4c2.8-0.4,5.3,1.4,6,3.9h1.2c2.7,0,4.8,2.2,4.8,4.8S558.9,36,556.2,36z M535.4,27.7c-1.9,0-3.4,1.5-3.4,3.4
				c0,1.9,1.5,3.4,3.4,3.4h20.8c1.9,0,3.4-1.5,3.4-3.4c0-1.9-1.5-3.4-3.4-3.4h-2.4l-0.1-0.6c-0.4-2.3-2.5-3.9-4.9-3.3l-0.5,0.1
				l-0.3-0.5c-1.1-1.9-3.1-3.1-5.3-3.1c-3.3,0-6,2.7-6,6c0,0.2,0,0.4,0,0.5l0.1,0.8H535.4z"/>
		</g>
		<g>
			<path class="st0" d="M234.2,89.1h-20.8c-2.7,0-4.8-2.2-4.8-4.8c0-2.6,2.1-4.7,4.7-4.8c0.1-4.1,3.4-7.3,7.5-7.3
				c2.5,0,4.9,1.3,6.3,3.4c2.8-0.4,5.3,1.4,6,3.9h1.2c2.7,0,4.8,2.2,4.8,4.8C239,86.9,236.8,89.1,234.2,89.1z M213.4,80.8
				c-1.9,0-3.4,1.5-3.4,3.4c0,1.9,1.5,3.4,3.4,3.4h20.8c1.9,0,3.4-1.5,3.4-3.4c0-1.9-1.5-3.4-3.4-3.4h-2.4l-0.1-0.6
				c-0.4-2.3-2.5-3.9-4.9-3.3l-0.5,0.1l-0.3-0.5c-1.1-1.9-3.1-3.1-5.3-3.1c-3.3,0-6,2.7-6,6c0,0.2,0,0.4,0,0.5l0.1,0.8H213.4z"/>
		</g>
	</g>
	<path class="st1" d="M299.3,355.7L299.3,355.7c-8.9,2.5-18.2-2.7-20.8-11.6L265.2,297c-2.5-8.9,2.7-18.2,11.6-20.8v0
		c8.9-2.5,18.2,2.7,20.8,11.6l13.3,47.1C313.4,343.9,308.2,353.2,299.3,355.7z"/>
	<path class="st1" d="M280.3,355.3L280.3,355.3c-6.6-6.5-6.7-17.1-0.2-23.8l34.3-35c6.5-6.6,17.1-6.7,23.8-0.2l0,0
		c6.6,6.5,6.7,17.1,0.2,23.8l-34.3,35C297.6,361.7,286.9,361.8,280.3,355.3z"/>
	<g>
		
			<ellipse transform="matrix(0.8323 -0.5543 0.5543 0.8323 -107.8482 236.0858)" class="st2" cx="336.3" cy="296.3" rx="14.7" ry="14.7"/>
		<path class="st2" d="M326.4,294.2L326.4,294.2c-2.1,0.5-4.1-0.7-4.7-2.8l-1.3-5.1c-0.5-2.1,0.7-4.1,2.8-4.7l0,0
			c2.1-0.5,4.1,0.7,4.7,2.8l1.3,5.1C329.7,291.5,328.5,293.6,326.4,294.2z"/>
		<path class="st2" d="M341.2,276.7l-5.2,13.2c-0.8,2-3.1,3.1-5.2,2.2l0,0c-2-0.8-3.1-3.1-2.2-5.2l5.2-13.2c0.8-2,3.1-3.1,5.2-2.2
			l0,0C341,272.4,342,274.7,341.2,276.7z"/>
		<path class="st2" d="M350.4,279.5l-6.3,12.7c-1,2-3.4,2.8-5.3,1.8l0,0c-2-1-2.8-3.4-1.8-5.3l6.3-12.7c1-2,3.4-2.8,5.3-1.8l0,0
			C350.6,275.1,351.4,277.5,350.4,279.5z"/>
		<path class="st2" d="M357.2,286.6l-8.8,11.2c-1.4,1.7-3.9,2-5.6,0.7l0,0c-1.7-1.4-2-3.9-0.7-5.6l8.8-11.2c1.4-1.7,3.9-2,5.6-0.7
			l0,0C358.3,282.3,358.6,284.9,357.2,286.6z"/>
	</g>
	<path class="st2" d="M262.8,259.7l-5.4-0.2c-3.9-0.2-7-3.5-6.8-7.4l1.2-30.2l19.6,0.8l-1.2,30.2C270,256.8,266.7,259.8,262.8,259.7
		z"/>
	<path class="st3" d="M271.3,221.6l-19.6-0.8l-0.3,7.7c-0.3,7.6,5.9,14.2,13.4,13.6c0.5,0,0.9-0.1,1.4-0.2c1.6-0.3,3-0.8,4.4-1.6
		L271.3,221.6z"/>
	<path class="st4" d="M281.2,191.5c5.1,9.2-0.8,21-13.1,26.4c-12.3,5.4-26.4,2.3-31.5-7c-5.1-9.2,0.8-21,13.1-26.4
		C262,179.2,276.1,182.3,281.2,191.5z"/>
	<path class="st4" d="M294.8,194.3c3.4,7.2-3.2,15.8-14.6,19.1c-11.4,3.3-23.4,0.2-26.8-7.1c-3.4-7.2,3.2-15.8,14.6-19.1
		C279.5,183.9,291.4,187,294.8,194.3z"/>
	<path class="st4" d="M276.1,176.2c6.8,4.2,6,15-1.8,24c-7.8,9-19.5,12.9-26.3,8.7c-6.8-4.2-6-15,1.8-24
		C257.5,175.9,269.3,172,276.1,176.2z"/>
	<path class="st2" d="M282.7,216.7c1.9,10.8-3.7,20.9-12.7,22.5l0,0c-8.9,1.6-17.7-5.9-19.6-16.7l-1.5-8.5
		c-1.9-10.8,3.7-20.9,12.6-22.5l0,0c8.9-1.6,17.7,5.9,19.6,16.7L282.7,216.7z"/>
	<path class="st4" d="M263.7,190.2c-4.9-4.5-13.5-2.3-19.2,4.8c-5.7,7.1-6.2,16.5-1.3,21c4.9,4.5,13.5,2.3,19.2-4.8
		C268,204,268.6,194.6,263.7,190.2z"/>
	<g>
		<path class="st3" d="M266.9,214.3c-0.3,0-0.6-0.1-0.7-0.4c-0.3-0.4-0.2-1,0.2-1.2c0.1-0.1,3-2,6-0.3c0.4,0.3,0.6,0.8,0.3,1.2
			c-0.2,0.4-0.8,0.6-1.2,0.3c-2-1.2-4,0.1-4.1,0.2C267.3,214.2,267.1,214.3,266.9,214.3z"/>
	</g>
	<g>
		<path class="st3" d="M282.4,214.3c-0.2,0-0.4-0.1-0.5-0.2l0,0c-0.1-0.1-2-1.4-4.1-0.2c-0.4,0.3-1,0.1-1.2-0.3
			c-0.3-0.4-0.1-1,0.3-1.2c3-1.8,5.9,0.2,6,0.3c0.4,0.3,0.5,0.8,0.2,1.2C283,214.2,282.7,214.3,282.4,214.3z"/>
	</g>
	<g>
		<ellipse transform="matrix(3.930664e-02 -0.9992 0.9992 3.930664e-02 42.9164 477.9725)" cx="270" cy="216.7" rx="0.9" ry="0.9"/>
	</g>
	<ellipse transform="matrix(3.930664e-02 -0.9992 0.9992 3.930664e-02 51.1845 487.2781)" cx="279" cy="217" rx="0.9" ry="0.9"/>
	<g>
		<g>
			<path class="st5" d="M282.1,223.6c-0.1,0-0.2,0-0.3,0c-2-0.1-3.8-0.9-5.1-2.4c-1.3-1.4-2-3.3-1.9-5.3c0.1-2,0.9-3.8,2.4-5.1
				c1.4-1.3,3.3-2,5.3-1.9c2,0.1,3.8,0.9,5.1,2.4c1.3,1.4,2,3.3,1.9,5.3c-0.1,2-0.9,3.8-2.4,5.1C285.7,222.9,284,223.6,282.1,223.6z
				 M282.1,210.1c-1.5,0-3,0.6-4.1,1.6c-1.2,1.1-1.9,2.6-2,4.3c-0.1,1.6,0.5,3.2,1.6,4.4c1.1,1.2,2.6,1.9,4.2,2
				c1.6,0,3.2-0.5,4.4-1.6c1.2-1.1,1.9-2.6,2-4.3c0.1-1.6-0.5-3.2-1.6-4.4c-1.1-1.2-2.6-1.9-4.3-2
				C282.3,210.1,282.2,210.1,282.1,210.1z"/>
		</g>
		<g>
			<path class="st5" d="M266.3,223.8c-0.1,0-0.2,0-0.3,0c-4.6-0.2-8.1-4-7.9-8.6c0.1-2.2,1-4.2,2.6-5.7c1.6-1.5,3.7-2.3,5.9-2.2
				c2.2,0.1,4.2,1,5.7,2.6s2.3,3.7,2.2,5.9c-0.1,2.2-1,4.2-2.6,5.7C270.4,223.1,268.4,223.8,266.3,223.8z M266.3,208.7
				c-1.7,0-3.4,0.6-4.7,1.8c-1.3,1.2-2.1,2.9-2.2,4.8l0,0c-0.1,3.8,2.8,7,6.6,7.1c1.8,0.1,3.6-0.6,4.9-1.8c1.3-1.2,2.1-2.9,2.2-4.8
				c0.1-1.8-0.6-3.6-1.8-4.9c-1.2-1.3-2.9-2.1-4.8-2.2C266.5,208.7,266.4,208.7,266.3,208.7z"/>
		</g>
		<g>
			<path class="st5" d="M273.1,216.9l3,0.1c0.4,0,0.7-0.3,0.7-0.6l0,0c0-0.4-0.3-0.7-0.6-0.7l-3-0.1c-0.4,0-0.7,0.3-0.7,0.6l0,0
				C272.5,216.6,272.8,216.9,273.1,216.9z"/>
		</g>
	</g>
	<g>
		<path class="st3" d="M279.2,221.2c-0.1,1.1-1.3,2-2.8,2.2c-1.4,0.1-2.5-0.6-2.5-1.7c0.1-1.1,1.3-2,2.8-2.2
			C278.2,219.4,279.3,220.1,279.2,221.2z"/>
	</g>
	<path class="st3" d="M278.6,226.9c-0.1,2.5-2.4,4.4-5,4.3c-2.7-0.1-4.2-2.8-4.1-5.2C272.6,225.7,275.7,226,278.6,226.9z"/>
	<path class="st5" d="M274,228.5c-2.1-0.2-3.4-1-3.6-2.6c2.6-0.1,5.2,0.1,7.7,0.9C277.8,228.2,276,228.7,274,228.5z"/>
	<g>
		<g>
			<path class="st6" d="M267.7,232.2L267.7,232.2l-5.3,0c-2.1,0-4.2-0.8-5.8-2.2l-3.3-3c-0.3-0.2-0.3-0.6,0-0.9
				c0.2-0.3,0.6-0.3,0.9,0l3.3,3c1.3,1.2,3.1,1.9,4.9,1.9l5.3,0c0.4,0,0.6,0.3,0.6,0.6C268.3,231.9,268,232.2,267.7,232.2z"/>
		</g>
		<g>
			<path class="st5" d="M267.7,232.9L267.7,232.9l-2.1,0c-0.7,0-1.3-0.6-1.3-1.3c0-0.7,0.6-1.3,1.3-1.3h0l2.1,0
				c0.7,0,1.3,0.6,1.3,1.3C269,232.3,268.4,232.9,267.7,232.9z"/>
		</g>
	</g>
	
		<ellipse transform="matrix(3.930162e-02 -0.9992 0.9992 3.930162e-02 20.4564 462.0305)" cx="250.5" cy="220.4" rx="10.7" ry="10.7"/>
	
		<ellipse transform="matrix(3.929918e-02 -0.9992 0.9992 3.929918e-02 19.0118 460.4045)" class="st1" cx="248.9" cy="220.3" rx="9.2" ry="8.4"/>
	
		<ellipse transform="matrix(3.930130e-02 -0.9992 0.9992 3.930130e-02 17.566 458.7775)" class="st7" cx="247.4" cy="220.3" rx="3.7" ry="2.9"/>
	<path class="st1" d="M276.4,370.1l-51.3,1.4c-8.6-0.3-15.2-7.5-14.9-16.1l3.2-85.9c0.2-4.5,3.1-8.4,7.4-9.7l38.3-12.2l30.6,14.7
		c3.8,1.8,6.2,5.8,6.1,10l-3.3,82.9C292.2,363.8,285,370.5,276.4,370.1z"/>
	<path d="M295.8,272.4c0.2,9,0.1,17.9-0.1,26.8c-0.1,8.9-0.4,17.9-0.8,26.8c-0.4,8.9-0.8,17.9-1.3,26.8c-0.1,2.2-0.2,4.6-1.1,6.8
		c-0.8,2.2-2,4.3-3.7,5.9c-3.3,3.3-8,5.1-12.5,4.6c4.5-0.1,8.8-2.1,11.5-5.4c1.4-1.6,2.5-3.5,3-5.6c0.6-2,0.6-4.1,0.6-6.4
		c0.1-8.9,0.4-17.9,0.8-26.8c0.4-8.9,0.8-17.9,1.4-26.8C294.3,290.2,294.9,281.3,295.8,272.4z"/>
	<path class="st1" d="M273.2,263.9l-27.7-1.8l1.1-16.4c0.1-2.1,1.9-3.7,4-3.5l20.1,1.3c2.1,0.1,3.7,1.9,3.5,4L273.2,263.9z"/>
	<path class="st1" d="M190.7,345L190.7,345c-8.6-3.6-12.6-13.4-9.1-22l18.8-45.2c3.6-8.6,13.4-12.6,22-9.1h0
		c8.6,3.6,12.6,13.4,9.1,22l-18.8,45.2C209.1,344.5,199.3,348.5,190.7,345z"/>
	<path d="M222.4,268.7c3,1,5.7,2.9,7.8,5.5c2,2.6,3.3,5.8,3.5,9.1c0.4,3.3-0.6,6.8-1.8,9.6l-3.5,8.7c-2.4,5.8-4.9,11.6-7.5,17.3
		l-3.9,8.6c-1.4,2.8-2.7,5.7-4.2,8.5c0.9-3,2-6,3-8.9l3.3-8.8c2.2-5.9,4.6-11.7,7-17.5l3.7-8.7c0.6-1.5,1.3-2.8,1.6-4.2
		c0.3-1.4,0.6-2.9,0.5-4.4C231.6,277.4,228,271.5,222.4,268.7z"/>
	<g>
		<path class="st8" d="M268.9,321.2l-8.6-0.6c-3.2-0.2-5.7-3-5.4-6.2l0.2-3.9c0.2-3.2,3-5.7,6.2-5.4l8.6,0.6L268.9,321.2z
			 M261.1,309c-1.1-0.1-2,0.8-2.1,1.9l-0.2,3.9c-0.1,1.1,0.8,2,1.9,2.1l4.7,0.3l0.5-7.8L261.1,309z"/>
	</g>
	<path class="st9" d="M277.3,333.6l-7.4-0.5c-4.5-0.3-7.9-4.2-7.6-8.7l1.5-23.8c0.2-2.7,23.9-1.1,23.7,1.5l-1.5,23.8
		C285.6,330.4,281.8,333.8,277.3,333.6z"/>
	
		<ellipse transform="matrix(6.436884e-02 -0.9979 0.9979 6.436884e-02 -43.8701 557.5302)" class="st8" cx="275.4" cy="302.2" rx="1.7" ry="9.7"/>
	<path class="st1" d="M181.4,329.8L181.4,329.8c0.1-9.3,7.8-16.7,17.1-16.5l49,0.8c9.3,0.1,16.7,7.8,16.5,17.1l0,0
		c-0.1,9.3-7.8,16.7-17.1,16.5l-49-0.8C188.6,346.8,181.2,339.1,181.4,329.8z"/>
	<path d="M198.5,313.3c6.3-0.4,12.6-0.6,18.9-0.7c6.3-0.1,12.6-0.1,18.8,0l9.4,0.2c3.1,0,6.7,0.4,9.6,2.2c2.9,1.6,5.3,4,6.9,6.9
		c1.5,2.9,2.2,6.2,1.9,9.3c-0.4-6.3-4.3-12-9.7-14.4c-1.3-0.6-2.8-1-4.2-1.3c-1.4-0.3-2.9-0.2-4.5-0.2l-9.4-0.1
		c-6.3-0.1-12.6-0.3-18.8-0.6C211,314.3,204.7,313.9,198.5,313.3z"/>
	<g>
		
			<ellipse transform="matrix(0.9957 -9.264232e-02 9.264232e-02 0.9957 -29.193 26.0716)" class="st2" cx="266.2" cy="327.5" rx="14.7" ry="14.7"/>
		<path class="st2" d="M258.6,320.4L258.6,320.4c-1.8-0.6-2.8-2.6-2.2-4.5l1.6-4.5c0.6-1.8,2.6-2.8,4.5-2.2l0,0
			c1.8,0.6,2.8,2.6,2.2,4.5l-1.6,4.5C262.4,320.1,260.4,321.1,258.6,320.4z"/>
		<path class="st2" d="M286.8,322.3l-13.1,1.2c-2,0.2-3.8-1.3-4-3.3l0,0c-0.2-2,1.3-3.8,3.3-4l13.1-1.2c2-0.2,3.8,1.3,4,3.3l0,0
			C290.3,320.4,288.8,322.2,286.8,322.3z"/>
		<path class="st2" d="M284,334.4l-13.1-0.8c-2-0.1-3.6-1.9-3.4-3.9l0,0c0.1-2,1.9-3.6,3.9-3.4l13.1,0.8c2,0.1,3.6,1.9,3.4,3.9l0,0
			C287.8,333,286.1,334.5,284,334.4z"/>
	</g>
	<g>
		<g>
			<path class="st8" d="M417.3,289.7c-0.4,0-0.8-0.2-1.1-0.5c-0.6-0.6-0.6-1.6,0-2.2l14.7-14.7c0.6-0.6,1.6-0.6,2.2,0
				c0.6,0.6,0.6,1.6,0,2.2l-14.7,14.7C418,289.5,417.7,289.7,417.3,289.7z"/>
		</g>
		<g>
			<g>
				<path class="st8" d="M406.8,280.7c-0.8,0-1.5-0.7-1.5-1.5v-20.7c0-0.8,0.7-1.5,1.5-1.5c0.8,0,1.5,0.7,1.5,1.5v20.7
					C408.3,280,407.7,280.7,406.8,280.7z"/>
			</g>
			<g>
				<path class="st8" d="M447,300.1h-20.7c-0.8,0-1.5-0.7-1.5-1.5c0-0.8,0.7-1.5,1.5-1.5H447c0.8,0,1.5,0.7,1.5,1.5
					C448.5,299.5,447.8,300.1,447,300.1z"/>
			</g>
		</g>
	</g>
	<path d="M262.8,364.7h126.9c3.5,0,4.6-2.9,4.6-6.4l0,0h-138l0,0C256.3,361.8,259.2,364.7,262.8,364.7z"/>
	<path d="M255.4,358.3h45c0,3.5-3.3,6.4-7.3,6.4h-29.5c0,0-8.4,0-8.4,0C251.1,364.6,251.3,358.3,255.4,358.3z"/>
	<path class="st1" d="M303.2,360.1h91.1c2.7,0,5-1.9,5.5-4.6l12.3-52.7c0.7-3.5-2-6.7-5.5-6.7h-91.1c-2.7,0-5,1.9-5.5,4.6
		l-12.3,52.7C297,356.9,299.7,360.1,303.2,360.1z"/>
	<path d="M309.9,300.7c0.3-1.5,1.1-2.7,2.2-3.5c1.7,1.2,2.7,3.4,2.2,5.6l-12.3,52.7c-0.3,1.5-1.1,2.7-2.2,3.5
		c-1.7-1.2-2.7-3.4-2.3-5.6L309.9,300.7z"/>
	<g>
		<path class="st10" d="M367.2,334.9h-14.9c-3.1,0-5.5-2.5-5.5-5.6l0,0c0-3.1,2.5-5.5,5.5-5.5h14.9c3.1,0,5.6,2.5,5.6,5.5l0,0
			C372.8,332.4,370.3,334.9,367.2,334.9z"/>
	</g>
	<g>
		<path d="M269,360h-4.5c-0.9,0-1.6-0.7-1.6-1.6l0,0c0-0.9,0.7-1.6,1.6-1.6h4.5c0.9,0,1.6,0.7,1.6,1.6l0,0
			C270.6,359.3,269.9,360,269,360z"/>
		<path d="M277.7,360h-4.5c-0.9,0-1.6-0.7-1.6-1.6l0,0c0-0.9,0.7-1.6,1.6-1.6h4.5c0.9,0,1.6,0.7,1.6,1.6l0,0
			C279.3,359.3,278.6,360,277.7,360z"/>
		<path d="M286.5,360H282c-0.9,0-1.6-0.7-1.6-1.6l0,0c0-0.9,0.7-1.6,1.6-1.6h4.5c0.9,0,1.6,0.7,1.6,1.6l0,0
			C288.1,359.3,287.4,360,286.5,360z"/>
		<path d="M295.2,360h-4.5c-0.9,0-1.6-0.7-1.6-1.6l0,0c0-0.9,0.7-1.6,1.6-1.6h4.5c0.9,0,1.6,0.7,1.6,1.6l0,0
			C296.8,359.3,296.1,360,295.2,360z"/>
	</g>
	<path class="st0" d="M462.2,372H78.9c-2.1,0-3.8-1.7-3.8-3.8l0,0c0-2.1,1.7-3.8,3.8-3.8h383.4c2.1,0,3.8,1.7,3.8,3.8l0,0
		C466.1,370.3,464.4,372,462.2,372z"/>
	<g>
		<g>
			<path class="st11" d="M136.2,340.7c0,0-2.8-21.2-7.9-26.4"/>
			<g>
				<path class="st5" d="M129.1,301.7c1.4,4.5,1.1,8.6-0.6,9.1c-1.7,0.5-4.2-2.7-5.6-7.2c0,0,0-0.1,0-0.1c-1.2-4,4.9-5.9,6.2-1.9
					C129.1,301.6,129.1,301.6,129.1,301.7z"/>
				<g>
					<path class="st5" d="M137.2,311.8c-4.5,1.4-8.6,1.1-9.1-0.6c-0.5-1.7,2.7-4.2,7.2-5.6c0,0,0.1,0,0.1,0c4-1.2,5.9,4.9,1.9,6.2
						C137.3,311.7,137.3,311.7,137.2,311.8z"/>
					<path class="st5" d="M121.8,316.4c4.5-1.4,7.8-3.9,7.2-5.6c-0.5-1.7-4.6-2-9.1-0.6c0,0-0.1,0-0.1,0c-4,1.3-2.2,7.3,1.9,6.2
						C121.7,316.5,121.7,316.4,121.8,316.4z"/>
				</g>
				<g>
					<path class="st5" d="M129.4,321.6c1.3-4.5,0.9-8.6-0.8-9.1c-1.7-0.5-4.1,2.8-5.4,7.4c0,0,0,0.1,0,0.1c-1.1,4,5,5.8,6.2,1.7
						C129.4,321.7,129.4,321.6,129.4,321.6z"/>
					<path class="st5" d="M133.8,320.3c-3.6-3.1-5.5-6.7-4.4-8c1.2-1.4,5,0.1,8.6,3.1c0,0,0.1,0.1,0.1,0.1c3.1,2.8-1,7.6-4.2,4.9
						C133.8,320.3,133.8,320.3,133.8,320.3z"/>
				</g>
				
					<ellipse transform="matrix(0.9573 -0.2892 0.2892 0.9573 -84.7451 50.5061)" class="st8" cx="128.5" cy="312" rx="2.2" ry="2.2"/>
			</g>
			<g>
				
					<ellipse transform="matrix(0.6189 -0.7855 0.7855 0.6189 -212.5213 224.174)" class="st5" cx="124.7" cy="331.1" rx="5.1" ry="13.5"/>
				
					<ellipse transform="matrix(0.7289 -0.6846 0.6846 0.7289 -186.6063 188.3471)" class="st5" cx="144.5" cy="329.8" rx="15.4" ry="5.8"/>
			</g>
		</g>
		<g>
			<polygon class="st0" points="144,365.6 123.7,365.6 120.2,340.1 147.5,340.1 			"/>
			<path class="st0" d="M148.6,346.6h-29.4c-0.8,0-1.5-0.7-1.5-1.5v-6.5c0-0.8,0.7-1.5,1.5-1.5h29.4c0.8,0,1.5,0.7,1.5,1.5v6.5
				C150,346,149.4,346.6,148.6,346.6z"/>
		</g>
	</g>
	<g>
		<polygon points="195.7,149.4 205.7,160.2 282.4,128.3 		"/>
		<polygon class="st12" points="199.3,113.9 191.7,125.3 196.8,136.5 185.3,138.4 175.2,160.7 284.8,127.5 		"/>
		<polygon points="196.8,136.5 191.7,125.3 251.1,128.1 		"/>
	</g>
	<g>
		<path class="st8" d="M191,247.1c-0.8,0-1.7,0-2.5,0c-0.9,0-1.5-0.7-1.5-1.6c0-0.8,0.7-1.6,1.6-1.5c4,0,7.9,0,12.3-0.2
			c0,0,0,0,0.1,0c0.8,0,1.5,0.6,1.5,1.5c0,0.8-0.6,1.6-1.5,1.6C197.5,247.1,194.2,247.1,191,247.1z M176.2,246.5c0,0-0.1,0-0.1,0
			c-4.2-0.4-8.4-0.9-12.4-1.6c-0.8-0.1-1.4-0.9-1.2-1.8c0.2-0.8,1-1.4,1.8-1.2c3.9,0.7,8,1.2,12.1,1.6c0.8,0.1,1.5,0.8,1.4,1.7
			C177.7,245.9,177,246.5,176.2,246.5z M151.9,242.1c-0.1,0-0.3,0-0.5-0.1c-4-1.2-8-2.8-11.7-4.5c-0.8-0.4-1.1-1.3-0.7-2
			c0.4-0.8,1.3-1.1,2-0.7c3.6,1.7,7.4,3.1,11.3,4.3c0.8,0.2,1.3,1.1,1,1.9C153.2,241.7,152.6,242.1,151.9,242.1z M129.7,231.6
			c-0.3,0-0.6-0.1-0.9-0.3c-3.5-2.3-6.8-4.9-9.9-7.8c-0.6-0.6-0.7-1.5-0.1-2.2s1.6-0.7,2.2-0.1c3,2.7,6.2,5.2,9.5,7.5
			c0.7,0.5,0.9,1.4,0.4,2.1C130.7,231.4,130.2,231.6,129.7,231.6z M111.6,215c-0.5,0-0.9-0.2-1.2-0.6c-2.6-3.3-5-6.8-7.1-10.4
			c-0.4-0.7-0.2-1.7,0.6-2.1c0.7-0.4,1.7-0.2,2.1,0.6c2,3.5,4.3,6.9,6.8,10c0.5,0.7,0.4,1.6-0.2,2.2
			C112.2,214.9,111.9,215,111.6,215z M99.4,193.6c-0.6,0-1.2-0.4-1.4-1c-1.5-4-2.7-8.1-3.5-12.1c-0.2-0.8,0.4-1.6,1.2-1.8
			c0.8-0.2,1.6,0.4,1.8,1.2c0.8,3.9,1.9,7.8,3.3,11.6c0.3,0.8-0.1,1.7-0.9,2C99.8,193.6,99.6,193.6,99.4,193.6z M94.5,169.5
			c-0.8,0-1.5-0.6-1.5-1.4c-0.2-2.5-0.2-5.2-0.2-7.9v-0.6c0-1.3,0-2.7,0.1-4c0-0.8,0.7-1.5,1.5-1.5c0,0,0,0,0.1,0
			c0.8,0,1.5,0.7,1.5,1.6c0,1.3-0.1,2.6-0.1,3.9v0.6c0,2.6,0.1,5.2,0.2,7.7c0.1,0.8-0.6,1.6-1.4,1.6
			C94.6,169.5,94.5,169.5,94.5,169.5z"/>
	</g>
	<g>
		<path class="st8" d="M107.4,145.1c-2.3,0-4.7,0-6.9-0.1c-0.8,0-1.5-0.7-1.5-1.6c0-0.8,0.7-1.5,1.5-1.5c0,0,0,0,0,0
			c4,0.1,8.1,0.1,12.3,0c1-0.1,1.6,0.7,1.6,1.5c0,0.9-0.7,1.6-1.5,1.6C111.1,145.1,109.2,145.1,107.4,145.1z M125.2,144.6
			c-0.8,0-1.5-0.6-1.5-1.5c0-0.8,0.6-1.6,1.4-1.6c4-0.2,8.1-0.5,12.3-0.9c0.8-0.1,1.6,0.6,1.7,1.4c0.1,0.8-0.6,1.6-1.4,1.7
			C133.5,144.1,129.3,144.4,125.2,144.6C125.3,144.6,125.2,144.6,125.2,144.6z M88.2,144.4c0,0-0.1,0-0.1,0
			c-4.3-0.3-8.4-0.8-12.4-1.4c-0.8-0.1-1.4-0.9-1.3-1.7c0.1-0.8,0.9-1.4,1.7-1.3c3.9,0.6,8,1,12.2,1.3c0.8,0.1,1.5,0.8,1.4,1.7
			C89.7,143.8,89,144.4,88.2,144.4z M149.8,142.4c-0.8,0-1.4-0.6-1.5-1.4c-0.1-0.8,0.5-1.6,1.3-1.7c4-0.5,8.1-1,12.2-1.6
			c0.8-0.1,1.6,0.5,1.7,1.3c0.1,0.8-0.5,1.6-1.3,1.7c-4.2,0.6-8.3,1.1-12.3,1.6C149.9,142.4,149.9,142.4,149.8,142.4z M63.8,140.9
			c-0.1,0-0.2,0-0.3,0c-3-0.7-5.9-1.4-8.6-2.2c-1.2-0.3-2.3-0.7-3.4-1.1c-0.8-0.3-1.2-1.1-1-1.9c0.3-0.8,1.1-1.3,1.9-1
			c1.1,0.4,2.2,0.7,3.3,1.1c2.7,0.8,5.5,1.5,8.4,2.2c0.8,0.2,1.4,1,1.2,1.8C65.1,140.4,64.5,140.9,63.8,140.9z M40.4,133
			c-0.2,0-0.5-0.1-0.7-0.2c-3.9-1.9-7.6-4.1-10.8-6.4c-0.7-0.5-0.9-1.5-0.4-2.1c0.5-0.7,1.5-0.9,2.1-0.4c3.1,2.2,6.6,4.3,10.4,6.1
			c0.8,0.4,1.1,1.3,0.7,2.1C41.5,132.6,41,133,40.4,133z M93.3,131.6c-0.8,0-1.5-0.7-1.5-1.5v-0.5c0-3.9-0.2-7.8-0.5-11.7
			c-0.1-0.8,0.6-1.6,1.4-1.7c0.8-0.1,1.6,0.6,1.7,1.4c0.3,4,0.5,8,0.5,11.9v0.5C94.9,130.9,94.2,131.6,93.3,131.6z M20.6,118.6
			c-0.4,0-0.8-0.2-1.1-0.5c-2.9-3.2-5.4-6.6-7.4-10.3c-0.4-0.7-0.1-1.7,0.6-2.1c0.8-0.4,1.7-0.1,2.1,0.6c1.9,3.5,4.2,6.7,7,9.7
			c0.6,0.6,0.5,1.6-0.1,2.2C21.3,118.4,20.9,118.6,20.6,118.6z M91.4,106.9c-0.7,0-1.4-0.5-1.5-1.3c-0.7-4.2-1.6-8.2-2.7-11.9
			c-0.2-0.8,0.2-1.7,1-1.9c0.8-0.3,1.7,0.2,1.9,1c1.1,3.8,2.1,7.9,2.8,12.2c0.1,0.8-0.4,1.6-1.3,1.8
			C91.5,106.9,91.4,106.9,91.4,106.9z M8.8,97.1c-0.7,0-1.3-0.4-1.5-1.1c-0.2-0.7-0.4-1.4-0.5-2.1c-0.5-2.3-0.8-4.6-0.8-6.8
			c0-1.3,0.1-2.7,0.3-3.9c0.1-0.8,0.9-1.4,1.7-1.3c0.8,0.1,1.4,0.9,1.3,1.7C9.1,84.8,9,85.9,9,87.1c0,2,0.3,4,0.7,6.1
			c0.2,0.7,0.3,1.3,0.5,2c0.2,0.8-0.3,1.7-1.1,1.9C9,97.1,8.9,97.1,8.8,97.1z M84.2,83.3c-0.6,0-1.1-0.3-1.4-0.9
			c-1.8-3.8-4-7.3-6.3-10.2c-0.5-0.7-0.4-1.6,0.2-2.2c0.7-0.5,1.6-0.4,2.2,0.2c2.5,3.1,4.7,6.7,6.7,10.8c0.4,0.8,0,1.7-0.7,2.1
			C84.7,83.3,84.5,83.3,84.2,83.3z M12.6,73.7c-0.3,0-0.7-0.1-0.9-0.3c-0.7-0.5-0.8-1.5-0.3-2.2c2.5-3.2,5.7-6.1,9.6-8.5
			c0.7-0.4,1.7-0.2,2.1,0.5c0.4,0.7,0.2,1.7-0.5,2.1c-3.6,2.2-6.5,4.8-8.8,7.7C13.5,73.5,13.1,73.7,12.6,73.7z M68.7,64.6
			c-0.3,0-0.6-0.1-0.8-0.3c-3.3-2.1-6.9-3.7-10.8-4.7c-0.8-0.2-1.3-1-1.1-1.9c0.2-0.8,1-1.3,1.9-1.1c4.2,1,8.2,2.8,11.7,5.1
			c0.7,0.5,0.9,1.4,0.4,2.1C69.7,64.3,69.2,64.6,68.7,64.6z M33.1,60.7c-0.7,0-1.3-0.4-1.5-1.1c-0.2-0.8,0.2-1.7,1-1.9
			c3.9-1.1,7.9-1.9,12.1-2.2l0.5,0c0.8,0,1.6,0.7,1.6,1.5c0,0.8-0.7,1.6-1.5,1.6l-0.3,0c-3.9,0.3-7.7,1-11.4,2.1
			C33.4,60.6,33.2,60.7,33.1,60.7z"/>
	</g>
	<path d="M402.9,71.1H485c10.3,0,18.6,8.3,18.6,18.6v42.4c0,10.3-8.3,18.6-18.6,18.6h-53.7l-19.3,17v-17h-9.1
		c-10.3,0-18.6-8.3-18.6-18.6V89.7C384.3,79.4,392.6,71.1,402.9,71.1z"/>
	<g>
		<g>
			<path class="st10" d="M414.8,97.3h58.2c1.3,0,2.3-1,2.3-2.3s-1-2.3-2.3-2.3h-58.2c-1.3,0-2.3,1-2.3,2.3S413.5,97.3,414.8,97.3z"
				/>
		</g>
		<g>
			<path class="st10" d="M414.8,112.9h58.2c1.3,0,2.3-1,2.3-2.3s-1-2.3-2.3-2.3h-58.2c-1.3,0-2.3,1-2.3,2.3S413.5,112.9,414.8,112.9
				z"/>
		</g>
		<g>
			<path class="st10" d="M464.5,128.4h8.5c1.3,0,2.3-1,2.3-2.3s-1-2.3-2.3-2.3h-8.5c-1.3,0-2.3,1-2.3,2.3S463.2,128.4,464.5,128.4z"
				/>
		</g>
		<g>
			<path class="st10" d="M445.1,128.4h8.5c1.3,0,2.3-1,2.3-2.3s-1-2.3-2.3-2.3h-8.5c-1.3,0-2.3,1-2.3,2.3S443.8,128.4,445.1,128.4z"
				/>
		</g>
		<g>
			<path class="st10" d="M414.8,128.4h19.4c1.3,0,2.3-1,2.3-2.3s-1-2.3-2.3-2.3h-19.4c-1.3,0-2.3,1-2.3,2.3S413.5,128.4,414.8,128.4
				z"/>
		</g>
	</g>
	<g>
		<path class="st12" d="M392.5,155.7h-62.9c-6.2,0-11.2,5-11.2,11.2v36.3c0,5.9,4.6,10.7,10.4,11.2l-13,21.2l34.2-21.2h42.5
			c6.2,0,11.2-5,11.2-11.2v-36.3C403.7,160.7,398.7,155.7,392.5,155.7z"/>
		<g>
			<circle class="st10" cx="361" cy="176.3" r="7.4"/>
			<path class="st10" d="M378.6,201.3h-35.2l0,0c0-6.2,5.1-11.3,11.3-11.3h12.6C373.6,190,378.6,195.1,378.6,201.3L378.6,201.3z"/>
		</g>
	</g>
	<g>
		<path class="st8" d="M316.6,96.8c-2.1,0-4.2-0.2-6.2-0.6c-0.8-0.2-1.4-1-1.2-1.8c0.2-0.8,1-1.3,1.8-1.2c3.2,0.7,6.5,0.7,9.6,0.3
			c0.8-0.1,1.6,0.5,1.7,1.3c0.1,0.8-0.5,1.6-1.3,1.7C319.6,96.6,318.1,96.8,316.6,96.8z M330.5,93.2c-0.5,0-1.1-0.3-1.3-0.8
			c-0.4-0.7-0.1-1.7,0.6-2.1c2.8-1.6,5.4-3.6,7.5-6.1c0.6-0.6,1.5-0.7,2.2-0.2c0.6,0.6,0.7,1.5,0.2,2.2c-2.4,2.7-5.2,5-8.3,6.8
			C331,93.1,330.8,93.2,330.5,93.2z M301.2,92.3c-0.3,0-0.6-0.1-0.8-0.2c-3.1-1.9-5.7-4.4-7.9-7.2c-0.5-0.7-0.4-1.6,0.3-2.2
			c0.7-0.5,1.6-0.4,2.2,0.3c2,2.6,4.4,4.8,7.1,6.5c0.7,0.5,0.9,1.4,0.5,2.1C302.3,92.1,301.8,92.3,301.2,92.3z M343.6,78
			c-0.2,0-0.4,0-0.5-0.1c-0.8-0.3-1.2-1.2-0.9-2c1.1-3,1.7-6.2,1.7-9.5c0-0.8,0.7-1.5,1.5-1.5c0.8,0,1.5,0.7,1.5,1.5
			c0,3.6-0.6,7.2-1.9,10.6C344.8,77.6,344.2,78,343.6,78z M289,76.4c-0.7,0-1.3-0.4-1.5-1.1c-0.9-2.9-1.3-5.9-1.3-9
			c0-0.6,0-1.1,0-1.7c0-0.8,0.8-1.5,1.6-1.4c0.8,0,1.5,0.8,1.4,1.6c0,0.5,0,1,0,1.5c0,2.7,0.4,5.5,1.2,8.1c0.3,0.8-0.2,1.7-1,1.9
			C289.3,76.4,289.2,76.4,289,76.4z M344.6,61c-0.7,0-1.3-0.5-1.5-1.2c-0.8-3.2-2.1-6.1-3.9-8.8c-0.5-0.7-0.3-1.7,0.4-2.1
			c0.7-0.5,1.7-0.3,2.1,0.4c2,3,3.5,6.3,4.4,9.8c0.2,0.8-0.3,1.7-1.1,1.9C344.8,61,344.7,61,344.6,61z M290.1,56.4
			c-0.2,0-0.4,0-0.6-0.1c-0.8-0.3-1.1-1.2-0.8-2c1.4-3.3,3.5-6.3,6-8.9c0.6-0.6,1.6-0.6,2.2,0c0.6,0.6,0.6,1.6,0,2.2
			c-2.3,2.3-4.1,5-5.4,8C291.3,56.1,290.7,56.4,290.1,56.4z M333.2,44.4c-0.3,0-0.6-0.1-0.9-0.3c-2.6-1.9-5.6-3.3-8.7-4.1
			c-0.8-0.2-1.3-1.1-1.1-1.9c0.2-0.8,1.1-1.3,1.9-1.1c3.5,0.9,6.8,2.5,9.7,4.6c0.7,0.5,0.9,1.5,0.4,2.1
			C334.2,44.2,333.7,44.4,333.2,44.4z M304.1,42c-0.6,0-1.1-0.3-1.4-0.9c-0.4-0.8-0.1-1.7,0.7-2.1c3.3-1.6,6.7-2.5,10.3-2.9
			c0.8-0.1,1.6,0.5,1.7,1.4c0.1,0.8-0.5,1.6-1.4,1.7c-3.2,0.3-6.4,1.2-9.3,2.6C304.5,41.9,304.3,42,304.1,42z"/>
	</g>
	<path d="M316.6,51.8c-11.1,0-20.1,6-20.1,13.3c0,0,0,0,0,0c0,1.9,1.5,3.2,2.9,2.6l5.3-2.3c1.3-0.5,1.9-2.4,1.3-4l-0.6-1.8
		c0,0,9.7,1.7,22.4,0l-0.7,2.3c-0.4,1.4,0.1,3,1.2,3.6l5.2,2.9c1.3,0.7,2.8-0.2,3-2c0.1-0.5,0.1-1,0.1-1.5
		C336.7,57.8,327.7,51.8,316.6,51.8z"/>
	<path class="st12" d="M330.5,81h-27.9l4.1-13c0.8-2.4,3-4.1,5.6-4.1h8.5c2.6,0,4.8,1.6,5.6,4.1L330.5,81z"/>
	<g>
		<path class="st8" d="M496.5,254.7c-2.1,0-4.2-0.2-6.2-0.6c-0.8-0.2-1.4-1-1.2-1.8c0.2-0.8,1-1.4,1.8-1.2c3.1,0.7,6.5,0.7,9.6,0.3
			c0.8-0.1,1.6,0.5,1.7,1.3c0.1,0.8-0.5,1.6-1.3,1.7C499.6,254.6,498.1,254.7,496.5,254.7z M510.5,251.1c-0.5,0-1.1-0.3-1.3-0.8
			c-0.4-0.7-0.1-1.7,0.6-2.1c2.8-1.6,5.4-3.6,7.5-6.1c0.6-0.6,1.5-0.7,2.2-0.2c0.6,0.6,0.7,1.5,0.2,2.2c-2.4,2.7-5.2,5-8.3,6.8
			C511,251,510.7,251.1,510.5,251.1z M481.2,250.3c-0.3,0-0.6-0.1-0.8-0.2c-3.1-1.9-5.7-4.4-7.9-7.2c-0.5-0.7-0.4-1.6,0.3-2.2
			c0.7-0.5,1.6-0.4,2.2,0.3c2,2.6,4.4,4.8,7.1,6.5c0.7,0.5,0.9,1.4,0.5,2.1C482.2,250,481.7,250.3,481.2,250.3z M523.6,235.9
			c-0.2,0-0.4,0-0.5-0.1c-0.8-0.3-1.2-1.2-0.9-2c1.1-3,1.7-6.2,1.7-9.5c0-0.8,0.7-1.5,1.5-1.5c0.8,0,1.5,0.7,1.5,1.5
			c0,3.6-0.6,7.2-1.9,10.6C524.8,235.5,524.2,235.9,523.6,235.9z M469,234.3c-0.7,0-1.3-0.4-1.5-1.1c-0.9-2.9-1.3-5.9-1.3-9
			c0-0.6,0-1.1,0-1.7c0-0.8,0.9-1.5,1.6-1.4c0.8,0,1.5,0.8,1.4,1.6c0,0.5,0,1,0,1.5c0,2.7,0.4,5.5,1.2,8c0.3,0.8-0.2,1.7-1,1.9
			C469.3,234.3,469.1,234.3,469,234.3z M524.5,218.9c-0.7,0-1.3-0.5-1.5-1.2c-0.8-3.2-2.1-6.1-3.9-8.8c-0.5-0.7-0.3-1.7,0.4-2.1
			c0.7-0.5,1.7-0.3,2.1,0.4c2,3,3.5,6.3,4.4,9.8c0.2,0.8-0.3,1.7-1.1,1.9C524.8,218.9,524.7,218.9,524.5,218.9z M470.1,214.3
			c-0.2,0-0.4,0-0.6-0.1c-0.8-0.3-1.1-1.2-0.8-2c1.4-3.3,3.5-6.3,6-8.9c0.6-0.6,1.6-0.6,2.2,0c0.6,0.6,0.6,1.6,0,2.2
			c-2.3,2.3-4.1,5-5.4,8C471.3,214,470.7,214.3,470.1,214.3z M513.2,202.3c-0.3,0-0.6-0.1-0.9-0.3c-2.7-1.9-5.6-3.3-8.7-4.1
			c-0.8-0.2-1.3-1.1-1.1-1.9c0.2-0.8,1.1-1.3,1.9-1.1c3.5,0.9,6.8,2.5,9.7,4.6c0.7,0.5,0.9,1.5,0.4,2.1
			C514.2,202.1,513.7,202.3,513.2,202.3z M484,199.9c-0.6,0-1.1-0.3-1.4-0.9c-0.4-0.8-0.1-1.7,0.7-2.1c3.3-1.6,6.7-2.5,10.3-2.9
			c0.9-0.1,1.6,0.5,1.7,1.4c0.1,0.8-0.5,1.6-1.4,1.7c-3.2,0.3-6.4,1.2-9.3,2.6C484.5,199.8,484.3,199.9,484,199.9z"/>
	</g>
	<rect x="478.4" y="218.8" class="st12" width="35.7" height="20.3"/>
	<g>
		<path d="M509.3,217.2v-2.5c0-1.8,1.5-3.3,3.3-3.3l0,0c1.8,0,3.3,1.5,3.3,3.3v4.1h-6.6"/>
		<path class="st12" d="M509.3,214.7v21.1H485v-21.1c0-1.8,1.5-3.3,3.3-3.3h24.1l-0.7,0.1C510.3,211.9,509.3,213.2,509.3,214.7z"/>
	</g>
	<g>
		<rect x="486.5" y="214.8" class="st10" width="5.4" height="5.5"/>
		<g>
			<g>
				<line class="st10" x1="493.5" y1="214.8" x2="507.3" y2="214.8"/>
				<line class="st10" x1="493.5" y1="216.7" x2="507.3" y2="216.7"/>
				<line class="st10" x1="493.5" y1="218.5" x2="507.3" y2="218.5"/>
				<line class="st10" x1="493.7" y1="220.4" x2="507.4" y2="220.4"/>
			</g>
			<line class="st10" x1="486.5" y1="222.2" x2="507.3" y2="222.2"/>
			<line class="st10" x1="486.5" y1="224.1" x2="507.3" y2="224.1"/>
			<line class="st10" x1="486.5" y1="225.9" x2="507.3" y2="225.9"/>
			<line class="st10" x1="486.5" y1="227.8" x2="496.6" y2="227.8"/>
		</g>
	</g>
	<polygon points="505.4,239.1 478.4,239.1 478.4,218.8 	"/>
	<polygon points="487.2,239.1 514.2,239.1 514.2,218.8 	"/>
	<path d="M514.2,239.1h-17.9h-17.9l16.1-8.6c1.1-0.8,2.5-0.8,3.6,0L514.2,239.1z"/>
</g>
</svg>
