<?xml version="1.0" encoding="utf-8"?>
<!-- Generator: Adobe Illustrator 21.0.0, SVG Export Plug-In . SVG Version: 6.00 Build 0)  -->
<svg version="1.1" id="Layer_1" xmlns="http://www.w3.org/2000/svg" xmlns:xlink="http://www.w3.org/1999/xlink" x="0px" y="0px"
	 viewBox="0 0 1920 1082" style="enable-background:new 0 0 1920 1082;" xml:space="preserve">
<style type="text/css">
	.st0{clip-path:url(#SVGID_2_);fill:url(#SVGID_3_);}
	.st1{clip-path:url(#SVGID_5_);fill:url(#SVGID_6_);}
	.st2{clip-path:url(#SVGID_8_);}
	.st3{clip-path:url(#SVGID_10_);fill:url(#SVGID_11_);}
	.st4{clip-path:url(#SVGID_10_);fill:url(#SVGID_12_);}
	.st5{clip-path:url(#SVGID_10_);fill:#CC3652;}
	.st6{clip-path:url(#SVGID_10_);fill:#C44561;}
	.st7{clip-path:url(#SVGID_10_);}
	.st8{fill:#FFFFFF;}
	.st9{clip-path:url(#SVGID_10_);fill:#FADEEB;}
	.st10{clip-path:url(#SVGID_10_);fill:#FDEFF4;}
	.st11{clip-path:url(#SVGID_10_);fill:#FFFFFF;}
	.st12{clip-path:url(#SVGID_14_);}
	.st13{fill:url(#SVGID_15_);}
	.st14{fill:url(#SVGID_16_);}
	.st15{clip-path:url(#SVGID_18_);}
	.st16{display:none;}
	.st17{display:inline;}
	.st18{fill:#282626;}
	.st19{fill:#EBF2FC;}
	.st20{fill:#929BB7;}
	.st21{fill:#2865DD;}
	.st22{fill:#5193F4;}
	.st23{fill:#CC3652;}
	.st24{fill:#CC9483;}
	.st25{fill:#BA784A;}
	.st26{fill:#A0593A;}
	.st27{fill:#919DA8;}
	.st28{fill:#232121;}
	.st29{fill:#300901;}
	.st30{fill:#E0AC9B;}
	.st31{fill:#DDC40B;}
	.st32{fill:#DBAA0E;}
	.st33{fill:#8FA4BC;}
	.st34{fill:#7581A0;}
	.st35{opacity:0.71;fill:#B2BCCE;enable-background:new    ;}
	.st36{fill:#D3DCEA;}
	.st37{opacity:0.65;fill:#EBF2FC;enable-background:new    ;}
	.st38{fill:url(#SVGID_19_);}
	.st39{fill:#2F120D;}
	.st40{fill:#4F1109;}
	.st41{fill:#D5A092;}
	.st42{fill:#AD4B07;}
	.st43{opacity:0.72;fill:#AD4B07;enable-background:new    ;}
	.st44{fill:#5B250E;}
	.st45{fill:#380F01;}
	.st46{fill:#F4E0A6;}
	.st47{fill:#E84F94;}
	.st48{fill:#DB3177;}
</style>
<g>
	<g>
		<g>
			<defs>
				<rect id="SVGID_1_" width="1920" height="1082"/>
			</defs>
			<clipPath id="SVGID_2_">
				<use xlink:href="#SVGID_1_"  style="overflow:visible;"/>
			</clipPath>
			
				<linearGradient id="SVGID_3_" gradientUnits="userSpaceOnUse" x1="751.3356" y1="465.8745" x2="751.3356" y2="1343.3888" gradientTransform="matrix(1 0 0 1 0 -300)">
				<stop  offset="0" style="stop-color:#000000;stop-opacity:2.000000e-02"/>
				<stop  offset="9.972988e-02" style="stop-color:#050505;stop-opacity:1.800540e-02"/>
				<stop  offset="0.2255" style="stop-color:#151515;stop-opacity:1.549088e-02"/>
				<stop  offset="0.3652" style="stop-color:#2E2E2F;stop-opacity:1.269649e-02"/>
				<stop  offset="0.515" style="stop-color:#525253;stop-opacity:9.699852e-03"/>
				<stop  offset="0.6729" style="stop-color:#808081;stop-opacity:6.541516e-03"/>
				<stop  offset="0.8365" style="stop-color:#B7B8B9;stop-opacity:3.270915e-03"/>
				<stop  offset="1" style="stop-color:#F6F7F9;stop-opacity:0"/>
			</linearGradient>
			<path class="st0" d="M-49,189c0,0,171-92,473,91s274,220,510,108s527.3-94.7,610.6,187.2S1437,1007,1286,1009s-812-236-1120,0
				S-49,189-49,189z"/>
		</g>
	</g>
	<g>
		<g>
			<defs>
				<rect id="SVGID_4_" width="1920" height="1082"/>
			</defs>
			<clipPath id="SVGID_5_">
				<use xlink:href="#SVGID_4_"  style="overflow:visible;"/>
			</clipPath>
			
				<linearGradient id="SVGID_6_" gradientUnits="userSpaceOnUse" x1="184.618" y1="571.9052" x2="637.4387" y2="1356.2137" gradientTransform="matrix(1 0 0 1 0 -300)">
				<stop  offset="0" style="stop-color:#000000;stop-opacity:5.000000e-02"/>
				<stop  offset="9.972988e-02" style="stop-color:#050505;stop-opacity:4.501351e-02"/>
				<stop  offset="0.2255" style="stop-color:#151515;stop-opacity:3.872721e-02"/>
				<stop  offset="0.3652" style="stop-color:#2E2E2F;stop-opacity:3.174124e-02"/>
				<stop  offset="0.515" style="stop-color:#525253;stop-opacity:2.424963e-02"/>
				<stop  offset="0.6729" style="stop-color:#808081;stop-opacity:1.635379e-02"/>
				<stop  offset="0.8365" style="stop-color:#B7B8B9;stop-opacity:8.177288e-03"/>
				<stop  offset="1" style="stop-color:#F6F7F9;stop-opacity:0"/>
			</linearGradient>
			<path class="st1" d="M-13,386c0,0,98-9,212,80s176,135,350,93s296,19,362,82s251,397-490,252c-174.3-34.1-48-148-434-59V386z"/>
		</g>
	</g>
	<g>
		<g>
			<defs>
				<rect id="SVGID_7_" width="1920" height="1082"/>
			</defs>
			<clipPath id="SVGID_8_">
				<use xlink:href="#SVGID_7_"  style="overflow:visible;"/>
			</clipPath>
			<g class="st2">
				<g>
					<g>
						<defs>
							<path id="SVGID_9_" d="M693.5-0.5c0,0-11,291,302,436s332,72,472,316c87.4,152.3,305,218,453,98v-850H693.5z"/>
						</defs>
						<clipPath id="SVGID_10_">
							<use xlink:href="#SVGID_9_"  style="overflow:visible;"/>
						</clipPath>
						
							<linearGradient id="SVGID_11_" gradientUnits="userSpaceOnUse" x1="1800.2692" y1="1244.2692" x2="907.8597" y2="351.8598" gradientTransform="matrix(1 0 0 1 0 -300)">
							<stop  offset="0" style="stop-color:#5F181C"/>
							<stop  offset="1" style="stop-color:#C60854"/>
						</linearGradient>
						<rect x="693" y="-9" class="st3" width="1243" height="935"/>
						
							<linearGradient id="SVGID_12_" gradientUnits="userSpaceOnUse" x1="1088.5999" y1="778.05" x2="2026.6998" y2="778.05" gradientTransform="matrix(1 0 0 1 0 -300)">
							<stop  offset="0" style="stop-color:#45180D"/>
							<stop  offset="1" style="stop-color:#B80854"/>
						</linearGradient>
						<path class="st4" d="M1710.9-3.5c0,0-70,43.6-65.3,180.5s-91.2,183.5-40.8,362.1c27.3,96.8,17.4,181.7-65.7,245.5
							s-183.6,15.5-297.7,50.3c-114,34.8-152.8,124.7-152.8,124.7h938.1v-963L1710.9-3.5L1710.9-3.5z"/>
						<path class="st5" d="M1767.7-17.1c0,0-135.2-1.8-110.7,216c19.2,170.6-47.7,190.1-38.7,291.9s86.3,251.3-46.4,336.3
							s-286.1,9.7-369.2,48.3c-83.1,38.7-102.6,85.6-102.6,85.6h771.3V-17.1H1767.7z"/>
						<path class="st6" d="M1739.3-33c0,0-86.3,61.1-86.3,182.2s141.2,165.7,129.6,333.9s-131.4,404-402,477.4h647.5V-33H1739.3z"/>
						<g class="st7">
							<path class="st8" d="M2001.8,303c-2.1-25.4,81.5-256.6-45.1-309.6c-133.8-56-245,25.7-263.7,59.9
								c-18.7,34.2-21.8,57.6-19.4,98c1.8,31,22.4,52,20.9,74.8c-2.7,4.1-10.3,10.4-31.7,8.1c0,0,7.8,8,27.3,9.4
								c-8,21.8-23.1,45-27.5,59.4c-4.7,15.7,10.6,18.4,22.3,22.3c11.7,3.9,16.6,6.1,12.3,14.7c-4.3,8.6-8.2,12.4-8.2,12.4
								s-4.7,12.8,14.8,12.8s17.1,1.6,17.1,1.6s-14.4,4.3-14.8,13.6c-0.4,9.3,16.3,2.7,17.1,18.3c0.8,15.6-13.2,33.4,11.3,43.6
								c24.5,10.1,55.3-22.5,105.6-27.2c50.3-4.7,61.5-13,120.1,54.9c48.9,56.6,53.7,78,54,83.5l9.3-197.6
								C2023.6,355.9,2003.9,328.4,2001.8,303z"/>
							<path class="st8" d="M2014.3,553.5l-0.1,1.6C2014.3,555.1,2014.4,554.6,2014.3,553.5z"/>
						</g>
						<path class="st9" d="M1709.3-27.8c0,0,9.7,156.2,93.3,215.6c66.9,47.5,89.6,100,64.7,179.3s-59.1,110.2-42,259.2
							s33.3,195.7-30.5,270.2S1647,967.8,1647,967.8h426.3V-27.8H1709.3z"/>
						<path class="st10" d="M1726.1-50.9c0,0,6.9,147.2,83.1,206.1s159.3,100.5,140.3,223.4c-19,123-93.5,142-95.3,254.6
							c-1.7,112.6,48.5,145.5,34.6,213s-105.6,124.7-105.6,124.7h398.3V-50.9H1726.1z"/>
						<path class="st11" d="M1736.7-53.8c0,0,32.7,149.3,182,240.3s88.7,270.7,49,366.4s-18.7,184.3-14,235.7
							c4.7,51.3,44.3,170.3,44.3,170.3h289.4V-58.5L1736.7-53.8z"/>
					</g>
				</g>
				<g>
					<defs>
						<rect id="SVGID_13_" width="1920" height="1082"/>
					</defs>
					<clipPath id="SVGID_14_">
						<use xlink:href="#SVGID_13_"  style="overflow:visible;"/>
					</clipPath>
					<g class="st12">
						
							<linearGradient id="SVGID_15_" gradientUnits="userSpaceOnUse" x1="930.2" y1="1193.3" x2="1706" y2="1193.3" gradientTransform="matrix(1 0 0 1 0 -300)">
							<stop  offset="0" style="stop-color:#5F181C;stop-opacity:5.000000e-02"/>
							<stop  offset="1" style="stop-color:#C60854;stop-opacity:5.000000e-02"/>
						</linearGradient>
						<path class="st13" d="M930.2,893.3c0,26.3,173.7,47.7,387.9,47.7s387.9-21.4,387.9-47.7s-173.7-47.7-387.9-47.7
							C1103.8,845.6,930.2,867,930.2,893.3z"/>
						
							<linearGradient id="SVGID_16_" gradientUnits="userSpaceOnUse" x1="1022" y1="1190.7" x2="1624.2999" y2="1190.7" gradientTransform="matrix(1 0 0 1 0 -300)">
							<stop  offset="0" style="stop-color:#5F181C;stop-opacity:0.1"/>
							<stop  offset="1" style="stop-color:#C60854;stop-opacity:0.1"/>
						</linearGradient>
						<path class="st14" d="M1022,890.7c0,21.9,134.8,39.7,301.2,39.7c166.3,0,301.1-17.8,301.1-39.7S1489.5,851,1323.2,851
							S1022,868.8,1022,890.7z"/>
					</g>
				</g>
				<g>
					<defs>
						<rect id="SVGID_17_" width="1920" height="1082"/>
					</defs>
					<clipPath id="SVGID_18_">
						<use xlink:href="#SVGID_17_"  style="overflow:visible;"/>
					</clipPath>
					<g class="st15">
						<g>
							<g class="st16">
								<g class="st17">
									<polygon class="st18" points="1667.2,897.1 1787,887 1787,865.6 1666.5,873.6 									"/>
									<polygon class="st18" points="1552.8,832.9 1666.8,897.5 1670.7,868 1552.8,814.1 									"/>
									<polygon points="1670,874.3 1552.8,814.1 1631.9,814.1 1787,865.6 									"/>
								</g>
								<g class="st17">
									<polygon points="1625.2,828.9 1787,865.6 1787,161.7 1759.1,155.8 1625.2,178.1 									"/>
									<g>
										<polygon class="st18" points="1755.8,172.1 1755.8,836.1 1638.6,795.5 1638.6,193.6 										"/>
										<polygon class="st8" points="1752.6,179.6 1752.8,827.3 1651.3,792.7 1651.3,196.5 										"/>
									</g>
								</g>
								<g class="st17">
									<g>
										<rect x="1661.7" y="821" class="st19" width="9.6" height="32.7"/>
										<g>
											<g>
												<path class="st20" d="M1650.3,858L1650.3,858L1650.3,858v-1.5h1.5c2.6-1.2,8.3-2.1,14.9-2.1s12.3,0.9,14.9,2.1h1.5v1.6
													l0,0c-0.3,1.9-7.5,3.5-16.4,3.5S1650.5,860,1650.3,858L1650.3,858L1650.3,858z"/>
												<path class="st19" d="M1650.3,856.5c0,2,7.3,3.6,16.4,3.6c9,0,16.4-1.6,16.4-3.6s-7.3-3.6-16.4-3.6
													C1657.6,852.9,1650.3,854.5,1650.3,856.5z"/>
											</g>
											<path class="st19" d="M1666.3,856.4c-2.4-0.4-11-1.9-10.3-2c2.2-0.2,6-3.4,6-3.4c1.2,0,1.5,0.5,2.7,0.7
												c0.6,0.1,1.4,0.1,1.8,0.1s1.1,0,1.7-0.2c1.3-0.2,3-0.7,3.1-0.6c0.8,1.7,5.2,3.2,6,3.2c0.7,0-7.9,1.5-10.3,2v0.1
												c0,0-0.1,0-0.3,0c-0.2,0-0.3,0-0.3,0L1666.3,856.4z"/>
											<path class="st19" d="M1669.8,851.9c1.5,2.3,11,5.4,11.4,5.3c-2.7,1.8-17.1,2.6-22.9,1.5c2.5-1.8,5.6-5.5,5.8-6.6
												C1667.4,853,1669.8,851.9,1669.8,851.9z"/>
										</g>
									</g>
									<g>
										<rect x="1628.3" y="805" class="st19" width="7.5" height="29.1"/>
										<g>
											<g>
												<path class="st20" d="M1618.5,836.7L1618.5,836.7L1618.5,836.7v-1.3h1.2c2.2-1,6.9-1.8,12.5-1.8s10.3,0.8,12.5,1.8h1.3
													v1.3l0,0c-0.2,1.6-6.3,2.9-13.7,2.9C1624.7,839.7,1618.7,838.4,1618.5,836.7L1618.5,836.7L1618.5,836.7z"/>
												<path class="st19" d="M1618.5,835.4c0,1.6,6.1,3,13.7,3s13.7-1.4,13.7-3c0-1.7-6.2-3-13.7-3
													C1624.6,832.4,1618.5,833.7,1618.5,835.4z"/>
											</g>
											<path class="st19" d="M1631.9,835.3c-2-0.3-9.2-1.6-8.7-1.6c1.8-0.2,5-2.8,5-2.8c1,0,1.2,0.4,2.3,0.6
												c0.5,0.1,1.2,0.1,1.5,0.1c0.4,0,0.9,0,1.4-0.1c1.1-0.2,2.5-0.6,2.6-0.5c0.6,1.4,4.3,2.7,5,2.7c0.6,0-6.6,1.3-8.6,1.6v0.1
												c0,0-0.1,0-0.3,0C1632,835.4,1631.9,835.4,1631.9,835.3L1631.9,835.3z"/>
											<path class="st19" d="M1634.8,831.6c1.2,1.9,9.2,4.5,9.6,4.5c-2.3,1.5-14.3,2.2-19.2,1.2c2.1-1.5,4.7-4.6,4.9-5.5
												C1632.8,832.5,1634.8,831.6,1634.8,831.6z"/>
										</g>
									</g>
									<g>
										<path class="st19" d="M1611.2,799.7c-0.7,1.9,0.6,4,3,4.8l75.4,28c2.3,0.8,4.9-0.1,5.6-2l0,0c0.7-1.9-0.6-4-3-4.8
											l-75.4-28C1614.4,796.9,1611.9,797.8,1611.2,799.7L1611.2,799.7z"/>
										<path class="st19" d="M1612.8,799.4c0.3-0.9,1.5-1.2,2.6-0.9l74.3,28c1.1,0.4,1.8,1.4,1.4,2.2l0,0
											c-0.3,0.9-1.5,1.2-2.6,0.9l-74.3-28C1613.1,801.2,1612.5,800.2,1612.8,799.4L1612.8,799.4z"/>
									</g>
								</g>
								<g class="st17">
									<polygon class="st18" points="1787,627.1 1786.1,619.9 1689.4,619.9 1689.4,637.3 1777.9,643.7 									"/>
									<g>
										<polygon class="st18" points="1689.4,777.2 1744.1,795 1749.7,795 1757.4,629.2 1689.4,622.4 										"/>
										<polygon points="1694.2,653.7 1739.9,663.5 1739.9,666.5 1694.2,656.8 										"/>
										<polygon points="1694.9,693.5 1739.9,704.7 1739.9,707.7 1694.9,696.6 										"/>
										<polygon points="1694.2,736.9 1739.9,750.8 1739.9,753.8 1694.2,740 										"/>
									</g>
									<rect x="1744.1" y="627.1" width="42.9" height="167.9"/>
								</g>
								<g class="st17">
									<path class="st21" d="M1734.1,621.1c0,3.8,9.5,3.8,14,3.8l0,0c4.4,0,14,0,14-3.8l-5.9-45.5c0-3.8-3.6-6.9-8.1-6.9l0,0
										c-4.5,0-8.1,3.1-8.1,6.9L1734.1,621.1z"/>
									<path class="st22" d="M1735.7,619.5c0,3.5,7.8,3.6,10.2,3.6l0,0c2.4,0,10.2,0,10.2-3.6l-5.9-43c0-3.5-1.9-4.6-4.3-4.6l0,0
										c-2.4,0-4.3,1.1-4.3,4.6L1735.7,619.5z"/>
									<g>
										<g>
											<path d="M1752.6,570.4c-0.8,1.4-8.5,0.7-9.3,0.4s0.4-5.1,1.1-5.6c1.1-0.7,6-1,7.1,0.2
												C1752.6,566.7,1752.6,570.4,1752.6,570.4z"/>
											<path class="st18" d="M1745,565.6c0,0.3,1.3,0.5,2.8,0.5c1.6,0,2.8-0.2,2.8-0.5s-1.3-0.5-2.8-0.5S1745,565.3,1745,565.6z
												"/>
											<path class="st18" d="M1744.6,566.1c-0.6,1.8-0.8,4.3-0.8,4.3s3.1,0.5,3.6,0.4c0.4-0.1,0.9-4.3,0.4-4.1
												C1747.3,566.8,1744.6,566.1,1744.6,566.1z"/>
										</g>
										<path d="M1746.5,565.2c0,0.3,0.6,0.6,1.4,0.6l0,0c0.8,0,1.4-0.3,1.4-0.6v-7.1c0-0.3-0.6-0.6-1.4-0.6l0,0
											c-0.8,0-1.4,0.3-1.4,0.6V565.2z"/>
										<g>
											<path class="st18" d="M1753.2,557.8c-1.8,0.4-6.1-0.7-7.3-0.8c-1.7-0.1-10.8-2.4-12.5,1.5c-0.1,0.2,0.2,0.4,0.1,0.6
												c1.2,0.4,2.8,1.3,2.8,1.3s1.3-1.2,2.5-2c1.1-0.7,3.1-1,6.8,0.3c2.5,0.9,6.2,0.9,7,0.3
												C1753.4,558.4,1753.2,557.8,1753.2,557.8z"/>
											<path d="M1751.2,556.2c-1.8,0.1-4.5,0.4-5.7,0.4c-2,0-10.9-2.8-12.1,1.9c1.2,0.4,2.8,1.3,2.8,1.3s1.3-1.2,2.5-2
												c1.1-0.7,3.1-1,6.8,0.3c2.5,0.9,6.8,0.7,7.6,0.1C1753.8,557.6,1751.2,556.2,1751.2,556.2z"/>
										</g>
									</g>
								</g>
								<g class="st17">
									<path class="st21" d="M1727.2,618.5c0,2.8-2.7,2.8-6,2.8l0,0c-3.3,0-6,0-6-2.8v-25c0-2.8,2.7-5.1,6-5.1l0,0
										c3.3,0,6,2.3,6,5.1V618.5z"/>
									<path class="st22" d="M1726.1,617.3c0,2.6-1.4,2.6-3.2,2.6l0,0c-1.8,0-3.2,0-3.2-2.6v-23.1c0-2.6,1.4-3.4,3.2-3.4l0,0
										c1.8,0,3.2,0.8,3.2,3.4V617.3z"/>
									<g>
										<g>
											<path d="M1717.9,589.7c0.6,1.1,6.3,0.5,6.9,0.3c0.6-0.3-0.3-3.8-0.8-4.1c-0.8-0.5-4.5-0.7-5.3,0.2
												C1718,586.9,1717.9,589.7,1717.9,589.7z"/>
											<path class="st18" d="M1723.6,586.1c0,0.2-0.9,0.3-2.1,0.3s-2.1-0.2-2.1-0.3c0-0.2,0.9-0.4,2.1-0.4
												C1722.6,585.7,1723.6,585.9,1723.6,586.1z"/>
											<path class="st18" d="M1723.8,586.5c0.4,1.3,0.6,3.2,0.6,3.2s-2.3,0.4-2.7,0.3c-0.3-0.1-0.7-3.2-0.3-3.1
												C1721.8,587,1723.8,586.5,1723.8,586.5z"/>
										</g>
										<path d="M1722.5,585.8c0,0.2-0.5,0.4-1,0.4l0,0c-0.6,0-1-0.2-1-0.4v-5.3c0-0.2,0.5-0.4,1-0.4l0,0c0.6,0,1,0.2,1,0.4V585.8
											z"/>
										<g>
											<path class="st18" d="M1717.5,580.3c1.3,0.3,4.5-0.5,5.4-0.6c1.2,0,8-1.8,9.3,1.1c0.1,0.1-0.1,0.3-0.1,0.5
												c-0.9,0.3-2.1,0.9-2.1,0.9s-0.9-0.9-1.9-1.5c-0.8-0.5-2.3-0.8-5,0.2c-1.9,0.7-4.6,0.7-5.1,0.2
												C1717.4,580.8,1717.5,580.3,1717.5,580.3z"/>
											<path d="M1719,579.1c1.3,0,3.4,0.3,4.2,0.3c1.5,0,8.1-2.1,8.9,1.4c-0.9,0.3-2.1,0.9-2.1,0.9s-0.9-0.9-1.8-1.5
												c-0.8-0.5-2.3-0.8-5,0.2c-1.9,0.7-5,0.5-5.6,0.1C1717,580.2,1719,579.1,1719,579.1z"/>
										</g>
									</g>
								</g>
							</g>
							<g>
								<g>
									<path class="st23" d="M1275.4,758.9c-4.9-7.7-8.2-10.9-8.6-16c-0.3-3.4,1.2-12.1,9.5-15c6.1-2.1,35.7-0.1,43.1-0.1
										c17.5,0,30.1,25.4,20.3,30.3C1329.9,763.1,1275.4,758.9,1275.4,758.9z"/>
									<path class="st23" d="M1247.7,636.1c1.9,7.5,6.9,35,13.8,60.4c20.8,12.9,80.1,31.9,85.1,35.8c5.4,4.2,1.9,5.4-3.7,6.5
										c-4.8,1-49.9,0.2-66.6-2.3c2.1,3.5,4.2,6,6.4,7.3c16.8,9.8,156.7,7.3,166.5,7c14-0.4,4.3-15.4,4.3-15.4
										c-14.8-29-19-49.3-29.5-53.6c-7.5-3.1-89.9-27.8-140.7-64.6c-25.9-13.3-31.4-7.9-34.6-2.1
										C1248.7,615.1,1244.2,622.1,1247.7,636.1z"/>
									<path class="st24" d="M1238.6,544.7c-2.7-0.7-9.4-0.5-16.8-3c2.2-0.3,11.4-1.5,9.4-3.9c-4.1-0.5-12.9-2.2-14.7-2.5
										c-1.6-0.2-7,1.9-13.3,2.9c-11.3-2.4-41.7-8.3-47.1-15.3c-5.5-7.1-29-41.6-29-41.6l-11.8,36.9c0,0,18.2,22.4,20.6,27.1
										c2.4,4.7,3.3,4.5,6.5,4.7c3.8,0.3,13.6,10.5,59.2,5.7c0.2,0,0.4-0.1,0.6-0.1c3.1,1.1,6.3,4.4,23.1,3.1
										c4.4-0.4,10.7-1.8,11.6-2.4c1.4-0.9-1.3-1.3-4.2-1.5c5.7-0.1,6.3-1.1,7.2-1.9c1.6-1.5-4.7-0.6-12.8-1.3
										c3.1,0.1,14.2,1,14.6-1.8c0.1-0.8-1.8-1.4-4.1-1.8c0.4,0,0.7,0,1.1-0.1C1243.8,547.3,1242.8,545.7,1238.6,544.7z"/>
									<path class="st18" d="M1125.1,464c3.1,4.3,24.3,42.8,24.3,42.8l-19.2,12.5c0,0-14.5-45.5-11-52.6
										C1122.7,459.7,1125.1,464,1125.1,464z"/>
									<g>
										<path class="st25" d="M1323.1,472.8c-19.5-2.3-21.3,27.6-24,35.9c0,0,15.5-3.6,17.7-4c2.2-0.5,10.7-1,18.2-9.1
											C1342.5,487.4,1332.7,473.9,1323.1,472.8z M1329,492.1c-2.9,3.1-7.7,3.3-10.8,0.4c-3.1-2.9-3.3-7.7-0.4-10.8
											c2.9-3.1,7.7-3.3,10.8-0.5C1331.6,484.2,1331.8,489,1329,492.1z"/>
										<path class="st26" d="M1306.9,503.2c2.5-9.5,7.8-27.9,16.8-26c-2.9,2.3-8,5.5-8.2,9.7c-0.2,4.1,1.6,11.5-0.6,13.8
											C1312.8,503,1306.9,503.2,1306.9,503.2z"/>
										<path class="st26" d="M1317.5,493.8c5.1,8.3,15.1,3.4,16.7-0.1c0,0,2.4-3,1.8-7.3c-0.7-5-4.8-11.8-12.4-9.8
											c4,4.2,10.6,9.1,8.1,14.1C1329.7,494.6,1317.5,493.8,1317.5,493.8z"/>
										<path class="st27" d="M1317.4,493.5c-4-3.7-4.4-9.9-0.8-13.8l0,0c3.6-3.9,9.8-4,13.8-0.3l0,0c4,3.7,4.4,9.9,0.8,13.8l0,0
											C1327.6,497.1,1321.4,497.1,1317.4,493.5L1317.4,493.5z M1319.7,491c2.7,2.5,6.7,2.3,9.1-0.2l0,0c2.3-2.5,2.1-6.5-0.6-9
											l0,0c-2.7-2.5-6.7-2.3-9.1,0.1l0,0C1316.8,484.5,1317,488.5,1319.7,491L1319.7,491z"/>
									</g>
									<g>
										<path d="M1028.3,873c-0.9,11.2,0.5,22.6,5.6,22.9c17.2,1.1,12.1-7.7,26.4-2.6c10.8,4,34,2.4,37.5-1.3
											c3-3.2,7.1-8.8-8-13.5c-14.3-4.5-24.1-18.4-29.9-25.6c-5.8-7.3-15-0.1-15-0.1l-15.1,4.6L1028.3,873z"/>
										<path d="M1033,623.5c0,26.2-1.6,85.2-6.5,111.4s-10.1,70.4-9,102.6c1.2,36.8,10.3,34.3,10.3,34.3s39.1-1,42.4-9.2
											c3.2-8.2-6-52.3-4.4-63.8s6.5-42.6,13.1-62.2C1085.4,716.9,1033,623.5,1033,623.5z"/>
										<path class="st28" d="M1077.7,882.7c-1.2,11.2,1.2,21.3,8,21.9c13.3,1.1,13.4-5.2,27.5,0.4c10.7,4.2,34.8,0.8,38.4-2.8
											c3.1-3.1,11.1-8.6-3.9-13.8c-14.1-4.9-29.9-12.3-34.9-26.2c-3.2-8.8-15-0.5-15-0.5l-15.3,4.2L1077.7,882.7z"/>
										<path d="M1105.1,607.1c3.3,19.6,24,103.5,26.2,109.7c2.9,8.2,5.9,18-1.6,34.4c-2.5,5.4-3.1,11.7-4.7,24.8
											s-5.9,52-4.3,65.1s0.6,33,0.6,33s-44.1,12.4-47.1,8.3c-7.5-10.4-5.2-54-4.5-64c3.1-48.5,9.2-58.9,5.9-70.4
											c-3.3-11.4-21.3-75.3-31.1-86.8c-9.8-11.5-24.9-43.3-16.4-63.9c8.6-20.6,3.3-16.4,3.3-16.4l70.4,6.5L1105.1,607.1z"/>
										<g>
											<path class="st18" d="M1123.1,831.9c1.2-13.2,2-48.3,3.7-61.4c1.6-13.1,0.4-13.9,2.9-19.2c7.6-16.4,4.5-27.4,1.6-35.6
												c-4-11.4-17.9-85.1-20.4-100.3l-3.8-27.3l-30.7-4.2c6.4,41.9,33.7,114.2,38,146.2c2.2,16.4-17.2,98.1-8.1,145.5
												c8.2-1.3,14.9-2.6,14.9-2.6S1121.3,852.1,1123.1,831.9z"/>
										</g>
									</g>
									<g>
										<path class="st24" d="M1109.8,387.9c-2.8,6.2-14.1,19.6-25.1,29c-16.9,14.4-5.8,9.7-5.8,9.7l31.7,26.4
											c0,0,19.7-25.8,28.3-28.2C1147.4,422.3,1109.8,387.9,1109.8,387.9z"/>
										<path class="st24" d="M1167.4,413.3c-0.8-3.7,1.3-13.6,1.1-16.1c0-0.1,0-0.2,0.1-0.2c5-4.9,10.2-14.5,8.9-25.5
											c-0.1-0.8-3.3-1.3-4.4-2.7c-5.3-18.3-50.3-36.1-62.8-10.9c-23.4,47.3,20,70.1,30.5,75c1.9,0.9,6.4,1.2,11.2-7.8
											c3.4-3.3,5.6-5.5,7.9-8.8c3.4,0.3,6.3-0.4,7.2-2.1C1167.2,413.9,1167.4,413.7,1167.4,413.3z"/>
										<path class="st29" d="M1124.6,342.6c6.1-2.1,11.4-9.4,25.6-1.4c12.2,6.8,27.2,13.2,29,26c1.7,11.9,10.6,12.7,10.6,12.7
											s-3.1,7.4-11.4,7c-3.5-0.2-14.8-11.1-21.3-7.3c-5.4,3.2-12.9,3.9-12.9,3.9s-13.9,1.5-15.8,5.5c-0.7,1.3-7.8,9.9-11.7,11.9
											c-8,3.9-20.9,2.2-20.9,2.2s4.4-9.1,6.3-29.5C1104.3,349.4,1115.6,345.7,1124.6,342.6z"/>
										<path class="st24" d="M1140.8,383.9c5.7-10.4-7.3-9.2-8.7-6c-1.7,3.5-8.4,11.5-4,16.7
											C1132.4,399.8,1140.8,383.9,1140.8,383.9z"/>
									</g>
									<path d="M1119.2,447.9c-5.3-6.9-11.1-9.9-15.9-13.7c-9.2-7.3-19-19.6-19-19.6c-27.8,22.9-33.7,35.3-44.3,98.9
										c-5.1,30.4-12.6,70.6-22.8,86.4c-7.3,11.3,99.6,36.8,100.5,23.5c4.7-70.7,14.7-106.4,15.3-125.8
										C1133.1,491.3,1122.3,451.9,1119.2,447.9z"/>
									<g>
										<path class="st30" d="M1506.9,779.6c7.1,11,11.8,27.5,19.6,33c7.9,5.5,26.4,12.8,31.1,17.6c4.7,4.7,4.7,4.7-6.3,5.5
											s-28-3.4-35-1.1c-7,2.4-12.2-1-13.5-9.9c-1.4-8.9-15.5-23.8-17.1-30.1C1484.1,788.2,1506.9,779.6,1506.9,779.6z"/>
										<path class="st28" d="M1502.8,824.6c6.2,6.8,28.7,8.8,38.8,8.6c13.3-0.4,8.1-8.4,5.5-9.8c0,0,19,5.6,20.8,8.2
											c1.8,2.6,2.7,10.6-15.8,12.7c-13,2-18.9-3.2-25.9-3.3s-6.1,5.5-16.6,1.9C1502.4,840.4,1502.8,824.6,1502.8,824.6z"/>
									</g>
									<path class="st31" d="M1294.4,734.8l51.5-41.3l8.6,6.4c0,0,95.6-13.1,109-7.9c4.9,1.9,7.5,3.7,12.5,16.7
										c6.4,16.8,45.9,87.2,45.9,87.2l-26.9,20.2c0,0-49.4-74.3-53-83c-3.6-8.8-41.9,20.6-70.5,28.5
										C1342.7,769.4,1300,774.1,1294.4,734.8z"/>
									<g>
										<path class="st24" d="M1439.4,726.5c21.2-1.7,23.6,6.6,24.8,16c1.6,12.6,2.3,13.2,1.5,33.8c-0.4,9.9,8.9,60.9,16.4,87
											c0,0,18.9,19,31.7,20.1c13,1.2-1.7,15.1-13.7,9.6c-12.1-5.5-26.5-2.3-36.2-1.4c-9.7,0.9-12.2-9.6-5.8-19.3
											c7.1-10.8-27.4-71.1-12.5-115.5c2.4-7.1-10.1-16.2-21.2-16.5C1418.6,740.1,1433,727,1439.4,726.5z"/>
										<path class="st32" d="M1437.6,723.7c5.4-1.3,25.3-3.1,29.2,18.6c4.5,25.1,11.7,108.1,16.8,116.7
											c-10.6,1.6-29.9,6.1-29.9,6.1s-23.3-56.9-22.8-84.4c0.4-27.5-4.3-24.5-4.3-24.5l-34.7-0.7
											C1391.8,755.6,1435.3,724.2,1437.6,723.7z"/>
										<path d="M1458.2,870.8c5.2,1.6,15.3,7.4,18.6,9.5c3.3,2.1,18.5,2.8,20.4,2.8c4.6,0.1,9.2-3.1,11.2-2.2
											c4.8,2.1,10.8,2.2,12.9,5.1c2.1,2.9-2,9.7-11.1,10s-28.6-4.6-34.5-3.5c-5.8,1.1-18.4,3.2-20-2
											C1452.4,880.2,1458.2,870.8,1458.2,870.8z"/>
									</g>
									<path class="st30" d="M1336,538.2c-8.8,7.8-11.5,18.3-7.6,33.6c1.5,6,9,8.6,14.5,12.2c6.8,4.4,5.4,51.8-7.2,47.1
										c-11-4.2-33.6-56.3-40.7-57.3c4.2-5.9,9.7-36.5,4.4-52.8C1293.9,504.7,1336,538.2,1336,538.2z"/>
									<path d="M1336.6,577.1c-6.3,6.3-26.7,1.6-33.7,0c-2.6-0.6-11.9-1.4-18.4,1.9c-11,5.6-23,13.3-22.6,27.5
										c0,0,15,95.4,15.8,111.9s18.8,57.3,76.9,47.1c45.6-8,68.3,3.2,68.3,3.2l-1.2,24.3c0,0,48.1-14.7,43.5-64.4
										c-1.2-12.7,1.6-33,15.7-40.4c0,0,6.3-0.4-62-14.5c-16.3-3.4-67.5-86.3-73-91.8C1340.5,576.3,1336.6,577.1,1336.6,577.1z"/>
									<path class="st30" d="M1273.4,546.2c-16.2-18.2-14.4-41,2.3-51.4c16.3-10.3,34.9-12.2,48,8.2c2.2,3.5,1.9,6.2,2.8,8.5
										c2.1,2.7,5.7,7,9.9,8.5c1.6,1.6,0.2,4.6-1.9,7c5.6,12.4,4.3,20.3-3.7,25.2C1319.5,559,1289.5,564.3,1273.4,546.2z"/>
									<g>
										<path class="st25" d="M1259.5,531.6c-3.6-17.9,3.1-32.4,22.4-42.1c13.3-6.7,27.9-2.5,31,1.7c1.2,1.7,0.4,2.2,0.4,2.2
											c1.8,20.2-16.3,31.6-17.6,32.6c-1.2,1-7.8,2.3-1.7,9.3c3.4,3.9,6.8,4.8,8.1,5c0.2-0.1,0.3-0.1,0.3-0.1
											c0.1,0.1,0.2,0.2,0.3,0.2l0,0l0,0c5.2,4-6.4,24.5-19,40.6c-15.5,7.1-17.2,19.3-21.8,19.8
											C1261.9,600.9,1265,559.3,1259.5,531.6z"/>
									</g>
									<path class="st25" d="M1303.3,541.4c0,7.5,5.4,34.4,23.8,51.7c18.5,17.3,23.5,36.5,7.5,63.2c-4.3-5.5,24.3-25.5-16.9-49.8
										c-22.8-13.5-50.5-18.2-44.2-39.4C1276.8,556.2,1303.3,541.4,1303.3,541.4z"/>
									<g>
										<polygon points="1167.4,540.2 1154,526.2 1205.6,477.6 1218.9,491.6 										"/>
										<path class="st33" d="M1218.9,491.6c-0.5,0.5-3.9-2.2-7.6-6.1s-6.3-7.4-5.8-7.9s3.9,2.3,7.6,6.1
											C1216.9,487.6,1219.4,491.1,1218.9,491.6z"/>
										<g>
											<polygon class="st33" points="1214.6,486.6 1210.3,482.2 1212.9,479.7 1217.2,484.2 											"/>
											<polygon class="st33" points="1216.9,485.4 1211.6,480 1214.5,477.2 1219.7,482.6 											"/>
										</g>
									</g>
									<path class="st25" d="M1262.4,509.3c-8.8,14.4-23.5,20.3-37.7,27.4c-14.1,7.1-31.2,24.7-25.9,77.7c1.7-2.4,1.5-4.1,0.9-7.3
										c0.4,0.4,1.3,4.7,1.3,4.7s-0.9-23.9,7.8-41.6c11-22.4,20-21.8,35.1-26.7c21.3-6.9,30.8-15.1,32-21.6
										C1276.6,518.4,1262.4,509.3,1262.4,509.3z"/>
									<g>
										<g>
											<path class="st25" d="M1294.2,465.4c-15.2,0.5-22.1,10.7-18.9,34.8c0,0,14.6-6.1,17-6.6s6.6,4.9,14.7-3.8
												C1315.1,481.2,1313,464.8,1294.2,465.4z M1300.5,486.2c-3.1,3.3-8.3,3.5-11.6,0.5c-3.3-3.1-3.5-8.3-0.5-11.6
												c3.1-3.3,8.2-3.5,11.6-0.5C1303.3,477.6,1303.5,482.8,1300.5,486.2z"/>
											<path class="st26" d="M1276.6,493.6c2.7-10.3,4.7-24,18.8-24c-3.1,2.5-9.1,6.5-9.4,10.9c-0.2,4.4,5.2,15.3-5.1,24.4
												C1278.4,507.2,1276.6,493.6,1276.6,493.6z"/>
											<path class="st26" d="M1288.1,488c5.5,8.9,16.3,3.7,18-0.1c0,0,2.5-3.3,1.9-7.9c-0.8-5.3-5.2-12.7-13.3-10.5
												c4.3,4.5,11.4,9.7,8.7,15.1C1301.3,488.8,1288.1,488,1288.1,488z"/>
											<path class="st27" d="M1288.2,487.5c-4.2-3.9-4.7-10.5-0.8-14.6l0,0c3.9-4.2,10.4-4.2,14.7-0.4l0,0
												c4.2,3.9,4.7,10.5,0.9,14.7l0,0C1299,491.3,1292.4,491.4,1288.2,487.5L1288.2,487.5z M1290.4,485c3,2.7,7.4,2.6,9.9-0.1
												l0,0c2.5-2.8,2.3-7.2-0.7-9.9l0,0c-2.9-2.7-7.4-2.5-9.9,0.2l0,0C1287.3,477.9,1287.5,482.3,1290.4,485L1290.4,485z"/>
										</g>
										<g>
											<path class="st26" d="M1256,492.9c-7.5,12,11.3,28.3,17.1,34.8c0,0,1.8-14.5,2.5-16.7c0.7-2.1,9.4-6.6,6.1-17.1
												C1278.4,483.3,1261.1,484.7,1256,492.9z M1275.7,497.4c1.3,4-0.9,8.3-4.9,9.6c-4,1.3-8.3-1-9.6-5c-1.3-4,0.9-8.3,5-9.6
												C1270.1,491.2,1274.4,493.4,1275.7,497.4z"/>
											<path class="st25" d="M1276.2,526c-7.1-6.9-22.1-24.5-16-31.4c0.6,3.7,0.9,9.7,4.3,11.9c3.5,2.2,14.3,2.9,15.2,5.9
												C1280.6,515.4,1276.2,526,1276.2,526z"/>
											<path class="st26" d="M1271.5,508.2c9.7-0.3,10.4-11.4,8.2-14.6c0,0-1.5-3.6-5.5-5.1c-4.7-1.8-12.6-1.7-14.7,5.9
												c5.7-1.4,13.2-4.7,16.3,0C1278.2,498,1271.5,508.2,1271.5,508.2z"/>
											<path class="st27" d="M1271.1,508.1c-3.5,1.1-7.3,0.2-9.8-2.1l0,0c-1.2-1.1-2.1-2.4-2.6-4l0,0c-1.1-3.4-0.1-6.9,2.2-9.4
												l0,0c1.1-1.2,2.6-2.3,4.4-2.8l0,0l0,0c3.6-1.1,7.3-0.2,9.8,2.1l0,0c1.2,1.1,2,2.4,2.6,4l0,0c1.1,3.4,0.1,6.9-2.2,9.4l0,0
												l0,0l0,0C1274.3,506.6,1272.8,507.6,1271.1,508.1L1271.1,508.1z M1262,501c0.3,1,0.9,1.9,1.6,2.6l0,0
												c1.6,1.5,4.1,2.1,6.5,1.4l0,0c1.2-0.4,2.2-1,3-1.9l0,0c1.5-1.7,2.1-3.9,1.4-6l0,0c-0.3-1-0.9-1.9-1.6-2.6l0,0
												c-1.6-1.5-4.1-2.1-6.5-1.4l0,0l-0.5-1.6l0.5,1.6c-1.2,0.4-2.2,1-2.9,1.8l0,0C1261.9,496.5,1261.3,498.8,1262,501
												L1262,501z"/>
										</g>
									</g>
									<path class="st24" d="M1215.7,535.3c6.3,0.4,6.9,2.3,15.7,2.1c2.4-0.1,3.4,2.4-0.6,2.8c-11.4,1.2-15.3,4.9-18.1,2.5
										C1210,540.4,1215.7,535.3,1215.7,535.3z"/>
									<path class="st30" d="M1210.9,480.5c2.4,0.1,5.5,0.1,7.2-0.1c2.8-0.3,0.9-2-0.9-3.1c-0.9-0.5-7.2-1.3-7.2-1.3l-0.1,0.1
										c-2.1-0.2-7.3,2.3-9.8,3.1c-3.2,1-20,11.8-20,11.8l-50,21l-28.1-47.7c0,0-35.2,19.4-32.6,24.3
										c16.9,31.8,40.3,48.3,43.8,52.8c7.1,9,11.9,3.7,13.8,3.2c14.9-4.7,57.8-35.7,59.6-35.8c11.8-0.3,20.1-3.1,20.1-3.1
										s6.7-2.4,7.2-3.4c0.6-1.3-1.5-1.7-3.8-1.7c3.5-0.3,7.6-0.9,8.5-2.5c0.8-1.3-3.4-2.2-6.9-2.6c1.3,0.1,2.8,0.2,4.7,0.2
										c7.6,0.3-2.3-4.8-2.3-4.8s-12.2-2.3-9.4-7C1207.9,482.4,1209.8,481.4,1210.9,480.5z"/>
									<path d="M1064.6,454.6c-6.6,7.5,0,35.3,5.9,48.9c5.9,13.5,10.6,18.8,10.6,18.8s32.4-18.8,35.9-23c3.5-4.1-18.8-53-22.4-53
										C1091.1,446.4,1077,440.5,1064.6,454.6z"/>
									<path class="st18" d="M1087.5,445c18.9,2.1,34.6,44.4,36.6,49.6c-4.6,3.2-10,6.9-10,6.9s-22.5-37.3-25.8-45.4
										C1085,448.1,1087.5,445,1087.5,445z"/>
									<path class="st18" d="M1087.8,410.9c0.4,3.5,21.4,29.8,33.9,34.9c1.2,5.1,0.4,8.8,0.4,8.8s-32.8-25.3-39-39.4
										C1081.9,412.4,1087.8,410.9,1087.8,410.9z"/>
									<g>
										<path class="st34" d="M1357.4,800.2c-4.1-3.4-49.4-14-69.4,1c0,0-0.8,4.2,2.5,4.2s12.7-6.8,16.8-7.2
											c10.4-1,29.3,5.6,34.4,5.3S1357.4,800.2,1357.4,800.2z"/>
										<g>
											<g>
												<rect x="1324.9" y="793.1" class="st34" width="26.4" height="86.9"/>
												<path class="st19" d="M1324.9,792.9c0,1,5.9,1.9,13.3,1.9c7.3,0,13.3-0.8,13.3-1.9c0-1-5.9-1.9-13.3-1.9
													S1324.9,791.8,1324.9,792.9z"/>
												<path class="st35" d="M1336.8,795.6c-3.3,0-6.4-0.2-8.7-0.5v82.6h11.8v-82.2C1339,795.6,1338,795.6,1336.8,795.6z"/>
											</g>
											<g>
												<path class="st34" d="M1272.3,893.2L1272.3,893.2L1272.3,893.2v-4.4h6c10.4-3.6,33.2-6.2,59.8-6.2
													c26.6,0,49.4,2.5,59.8,6.2h6v4.7h-0.1c-1,5.7-30,10.3-65.7,10.3s-64.7-4.6-65.7-10.3h-0.1L1272.3,893.2L1272.3,893.2z"
													/>
												<path class="st36" d="M1272.3,888.8c0,5.9,29.5,10.6,65.8,10.6s65.8-4.7,65.8-10.6c0-5.9-29.4-10.6-65.8-10.6
													C1301.8,878.2,1272.3,882.9,1272.3,888.8z"/>
											</g>
											<path class="st36" d="M1336.8,888.5c-9.6-1.2-44.2-5.7-41.4-5.7c3.2,0,23.1-5.9,28.7-9.4c0.6-0.3,1.1,0.9,6.1,1.6
												c2.5,0.3,5.6,0.3,7.3,0.3c1.7,0,4.5-0.1,6.9-0.4c5-0.6,5.9-1.8,6.4-1.5c5.6,3.4,26.7,9.4,29.9,9.4
												c2.7,0-31.8,4.5-41.4,5.7v0.3c0,0-0.4-0.1-1.2-0.2c-0.8,0.1-1.2,0.2-1.2,0.2L1336.8,888.5z"/>
											<path class="st37" d="M1350.7,875.3c5.9,6.7,44,15.9,45.9,15.6c-10.9,5.5-68.7,7.8-92.1,4.4c10-5.3,22.5-16.2,23.5-19.4
												C1341.2,878.6,1350.7,875.3,1350.7,875.3z"/>
										</g>
										<g>
											<rect x="1331.3" y="755.1" class="st34" width="13.5" height="37.3"/>
											<path class="st20" d="M1331.3,792.5c0-0.7,3-1.2,6.8-1.2c3.7,0,6.8,0.5,6.8,1.2c0,0.6-3,1.2-6.8,1.2
												C1334.4,793.7,1331.3,793.2,1331.3,792.5z"/>
											<path class="st35" d="M1339,790.9v-34.4h-6v34.7c1.2-0.2,2.7-0.3,4.4-0.3C1338,790.9,1338.6,790.9,1339,790.9z"/>
										</g>
										<g>
											<path class="st19" d="M1334.2,802.5c0.2,2.1,2.1,3.6,4.1,3.3l15.8-1.6c2.1-0.2,3.5-2,3.3-4.1l0,0c-0.2-2.1-2-3.6-4.1-3.4
												l-15.7,1.6C1335.5,798.6,1334,800.4,1334.2,802.5L1334.2,802.5z"/>
											<path class="st20" d="M1335.5,802.5c0,1.3,0.9,2.4,2,2.4s1.9-1.1,1.9-2.4c0-1.3-0.9-2.4-1.9-2.4
												C1336.4,800.1,1335.5,801.1,1335.5,802.5z"/>
											<g>
												<path class="st20" d="M1353.8,803.8l-14.6,1.5c0.6-0.5,1-3.1,1-3.1l16.9-1.6C1356.8,802.3,1355.6,803.6,1353.8,803.8z"
													/>
											</g>
										</g>
									</g>
									
										<linearGradient id="SVGID_19_" gradientUnits="userSpaceOnUse" x1="1241.0123" y1="994.1617" x2="1409.9004" y2="994.1617" gradientTransform="matrix(1 0 0 1 0 -300)">
										<stop  offset="0" style="stop-color:#5F181C"/>
										<stop  offset="1" style="stop-color:#C60854"/>
									</linearGradient>
									<path class="st38" d="M1241.7,634.1c1.8,7.1,7.2,38.8,14.3,69.5c15.8,18.2,80.7,32.9,86.7,36.4c6.5,3.7,0,6.5-3.7,6.5
										c-3.1,0-52.9,0.6-72.2-3.6c4.1,12.2,8.5,21.2,12.8,23.7c16.8,9.8,111.7,10.7,121.5,10.5c14-0.3,7.1-16.1,7.1-16.1
										c-10.8-25.2-16.6-49.1-27.2-53.1c-42.5-16.1-100.4-49.6-124-78.8c-1.2-1.5-6.2-8-6.6-12.1c-0.1-0.9,2.6-5.7,1.5-5.8
										c-3.9,2.4-4.3,4-7.8,8C1241.7,622.4,1240,627.4,1241.7,634.1z"/>
								</g>
								<g>
									<path class="st24" d="M1419.5,574.2c1-0.5,5.2-0.3,7,0.7s9,2.6,10.5,3.2c1.4,0.6,6.2-3.4,6.2-3.4l6.2,11.5
										c0,0-10.4,6.3-13.1,6.8c-5.4,1-16.6,2.6-19.2,0.7C1414.6,592,1419.5,574.2,1419.5,574.2z"/>
									<g>
										<path class="st30" d="M1419,583.2c4.2,1.2,7.5,3.1,5.5,4.3s-11-1.7-11-1.7s11.1,2.7,9.8,5c-1.4,2.3-16.8-0.2-17.2-3.3
											C1405.3,582.3,1419,583.2,1419,583.2z"/>
										<path class="st30" d="M1408,589.6c-1.6,1.3-1.7,2.8,1.5,4.4c3.2,1.6,11.1,1.7,11.4,0.3s-1.8-2.8-3.9-3.3
											C1414.9,590.4,1408,589.6,1408,589.6z"/>
									</g>
									<path d="M1469,529.5c-1.5,6.9,1.8,5.1,2.9,9.2c1.2,4.2-42.3,37-42.3,37l22.4,26.9c0,0,40.4-35.7,44.1-39.8
										c3.7-4.2,1.1-5.5,0.7-7.9C1496.5,552.6,1469,529.5,1469,529.5z"/>
									<g>
										<path class="st39" d="M1395.2,446.1c6,13.5,3.6,61.5-0.7,65.4c4,2.3,18.7-7.8,18.5-12.7c-1.2,7.4-10.8,10.1-8.2,10.2
											c22.7,0.7,45.9-29,42.8-41.6C1444.6,454.9,1395.2,446.1,1395.2,446.1z"/>
										<path class="st39" d="M1374.9,410.9c1.5-2.9,8.5-26.1,46.5-17c14.2,3.4,9.3-4.4,19.3,17.5C1465,465.3,1474,460,1474,460
											l-80.2,45.6l-20.2-76.6L1374.9,410.9z"/>
										<path class="st40" d="M1379,402.6c0,0-1.8,37.9,11.1,83.6c3.3,11.7-12.4,14.1-17.4,9.8c4.9,0.2,6.4-13.1,4.8-21.4
											c-2.5-13.4-7.5-48.6-2.7-63.7L1379,402.6z"/>
										<path class="st40" d="M1380.3,404.4c-6.5,7.1-1,46.1,7.4,79.6c3.9,15.5-6.3,21.2-10.4,21c5.2,2.7,16.4,11.5,21.4-8.1
											s-12.5-53.5-15.2-75.1C1380.8,400.2,1380.3,404.4,1380.3,404.4z"/>
									</g>
									<path class="st41" d="M1403.2,465.5c36.3,0,30.9,19.2,37.5,30.9c4.1,7.2,6.8-4.3,14.2-16.1c6.5-10.3,6.4-13.4,11.6-18.6
										c-7.1-2.2-40.6-29.9-46.3-46.6C1414.7,398.4,1403.2,465.5,1403.2,465.5z"/>
									<g>
										<g>
											<path class="st18" d="M1566.4,846.9c-1.4-7.9,1.4-26.3,1.4-26.3h-28.6c0,0,3,6.2-3.4,24.7c-6.4,18.4-10.3,31-23.5,35.1
												c0,0-12.6,3-8.1,11.8c2.4,4.6,30,5.7,36-5.8c4.8-9.2,11-13.1,16.6-15c2,4.9,2.5,21.9,2.5,21.9s3.6,0.3,4.9-0.3
												c-0.7-4.5,0.5-21.5,3.4-24.6C1571.5,865,1567.6,853.9,1566.4,846.9z"/>
											<path d="M1491,589.2c9.3,35.6,28.4,165,30.8,171.2c12.2,31,10.9,95.9,10.9,95.9l39.4,4.6c0,0,0.3-85.2-18.7-115.2
												c3.8-46.3,0-100.6,0-100.6l-43.6-65.1L1491,589.2z"/>
										</g>
										<g>
											<path d="M1628.7,843.3c1.3-4.9-8.3-11.8-13.3-16.9c-5.6-5.7-13.9-22.4-13.9-22.4l-23.5,16.3c0,0,6,3.4,11.3,22.2
												s9.3,31.3,0.8,42.1c0,0-8.7,9.7,0.1,14.4c4.5,2.4,27.9-12.5,26.2-25.4c-1.3-10.3,1.6-17,5.1-21.8
												c4.4,2.9,14.5,16.5,14.5,16.5s3.2-1.8,3.9-3C1636.9,862.1,1628.2,847.7,1628.7,843.3z"/>
											<path class="st18" d="M1486.6,596.1c4.8,16.2,14.3,35.7,17.4,48.3c14.1,55.8,32.4,100.7,34.9,112
												c3.1,13.8,19.5,21.1,47.2,94.7c15.3-0.4,37.1-19.2,37.1-19.2s-30-75.4-45.4-86c-10.2-7-19.5-96.6-17-106.3
												c2.6-9.8,5-25.5-0.8-41.4c-7.6-20.3-35.2-40.9-35.2-40.9L1486.6,596.1z"/>
										</g>
									</g>
									<path d="M1446.5,472.3c-3.7,5.4-13.7,14.4-13.7,14.4c3.2,12.6,8.2,49.7,10.5,55.7c3.2,8.3,14,10.3,17.9,13.6
										c9,7.5,11.1,13,18.5,34c1.9,5.3,13.3,36.6,13.3,36.6s61.7-33.3,65.7-39.4c2.5-3.8-39.2-65.1-52.2-83.9
										c-13.1-18.8-25.3-36.1-49.9-48.1C1456,466.3,1450.9,465.9,1446.5,472.3z"/>
									<path class="st18" d="M1512.4,501.2c20.6,32.5,48.7,82.8,48.8,85.1l-22,14.8c0,0-32.3-66.4-34-69.3
										c-26.2-44.7-40.2-45.7-42.7-46.4c-3.4-1-7.8-12.6-14.4-14.3c4.5-3.9,3.7-5.9,8.9-14.8
										C1484.1,466.5,1500.1,481.9,1512.4,501.2z"/>
									<g>
										<path class="st30" d="M1412.3,391.3c20.3-0.5,26.5,10.2,27.3,35.6c0.7,25.4-12.8,44-29.2,48.2
											c-5.6,1.4-11.3-1.6-17.2-11.4c-3,0.1-5.8-0.4-6-2.4c0.6-2.6,0.1-7.4-1.4-13c-3.9-8.8-5.8-16-6-25.4
											C1378.9,397.4,1392.1,391.8,1412.3,391.3z"/>
									</g>
									<path class="st39" d="M1375.2,420.7c2.3,10.2,13.4,2.5,22,2.8c8.7,0.3,17.1,2.1,17.8,3.9c2.3-3.5,10.1-2.3,9.1,3.3
										c-1,5.6-2.9,6-2.8,7.2c0,1.2,27.7,41.9,60.6,23.2c0,0-15.7-6.2-19.2-22.8c-3.5-16.6-22.7-43.9-36.4-47.5
										c-16.5-4.3-38-3-45.9,9C1372.6,412.1,1375.2,420.7,1375.2,420.7z"/>
									<g>
										<path class="st42" d="M1322.3,512.8c-1.4-0.3-1.9-0.7-3.8-0.6c0.1,0.1,0.3,0.1,0.5,0.2c-0.5,0-1.1,0-1.7,0.1
											c-0.5,0.2-0.7,0.4-0.7,0.4l1.2,0.1l-1.3,0.1l1.1,0.2c-0.5,0-0.9,0-1,0c-0.2,0.1-0.3,0.4-0.2,0.4c0,0,0.2,0,0.4,0
											c-0.4,0-0.7,0.1-0.7,0.1l-0.2,0.4h2.1l-2.2,0.1v0.3l2.1,0.1l-2-0.1l0.2,0.5l0.1,0.1l0,0l1.8,0.2h-1.7c0,0,0,0,0,0.3
											c0.1,0,0.3,0.1,0.6,0.1h-0.5l1.3,0.2h-1.2c0,0,0.2,0.2,0.7,0.4c0.6,0.2,1.2,0.2,1.7,0.3c-0.2,0-0.4,0.1-0.5,0.1
											c2.1,0.3,3.1-0.1,4.2-0.4c0.1,0,0.2,0,0.2,0v-0.1h0.1v-0.7h-0.1l0.2-2.1h0.1v-0.7l0,0v-0.2
											C1322.9,512.7,1322.7,512.8,1322.3,512.8z"/>
										<path class="st43" d="M1322.3,513c-1.3-0.3-1.7-0.7-3.5-0.5c0.1,0.1,0.2,0.1,0.4,0.2c-0.5,0-1,0-1.6,0.1
											c-0.4,0.2-0.6,0.4-0.6,0.4l1.1,0.1l-1.2,0.1l1,0.1c-0.5,0-0.9,0-0.9,0.1c-0.2,0.1-0.3,0.4-0.2,0.4c0,0,0.2,0,0.4,0
											c-0.4,0.1-0.6,0.1-0.6,0.1l-0.2,0.4h2l-2.1,0.1v0.2l2,0.1h-2l0.2,0.4l0.1,0.1l-0.1,0.1l1.7,0.2h-1.6c0,0,0,0,0,0.2
											c0.1,0,0.3,0.1,0.6,0.1h-0.5l1.3,0.1h-1.1c0,0,0.2,0.2,0.6,0.4c0.6,0.1,1.2,0.2,1.6,0.2c-0.2,0-0.4,0.1-0.4,0.1
											c2,0.3,2.8-0.1,3.9-0.3c0.1,0,0.2,0,0.2,0l0,0h0.1v-0.7h-0.1l0.2-1.9l0,0v-0.7l0,0V513
											C1322.9,512.9,1322.7,512.9,1322.3,513z"/>
										<path class="st43" d="M1322.8,513.2c-1.3-0.3-1.7-0.6-3.6-0.5c0.1,0.1,0.2,0.1,0.5,0.2c-0.5,0-1.1,0-1.7,0.1
											c-0.4,0.1-0.6,0.3-0.6,0.3l1.1,0.1l-1.2,0.1l1,0.1c-0.5,0-0.9,0-1,0c-0.2,0.1-0.3,0.3-0.1,0.3c0,0,0.2,0,0.4,0
											c-0.4,0-0.6,0-0.6,0l-0.2,0.3h2l-2.1,0.1v0.2l1.9,0.1l-1.9-0.1l0.2,0.4l0.1,0.1l0,0l1.7,0.2h-1.6c0,0,0,0,0,0.2
											c0.1,0,0.3,0.1,0.6,0.1h-0.5l1.2,0.1h-1.1c0,0,0.2,0.2,0.6,0.4c0.6,0.1,1.2,0.2,1.6,0.2c-0.2,0-0.4,0.1-0.4,0.1
											c2,0.3,2.8-0.1,3.9-0.3c0.1,0,0.2,0,0.2,0l0,0h0.1v-0.6h-0.1l0.1-1.7h0.1v-0.6l0,0v-0.2
											C1323.4,513.2,1323.2,513.2,1322.8,513.2z"/>
										<g>
											<path class="st44" d="M1350.3,513.7c19.8,0.7,57,2.5,57.2,3.9c0.1,1.4-37.3,0.8-57.1,0.1c-14-0.5-15.7-1.3-15.5-2.7
												C1335,513.9,1337.3,513.2,1350.3,513.7z"/>
											<path class="st45" d="M1349.4,516.3c-7.6-0.3-12.1-0.6-14.5-1.1c0.1,1.2,2.6,2,15.5,2.4c19.8,0.7,57.2,1.3,57.1-0.1
												c0-0.1-0.3-0.3-0.9-0.4C1393.3,517.5,1365.9,516.9,1349.4,516.3z"/>
										</g>
										<path class="st46" d="M1322.6,512.6v2.1l-0.1,2.1c0,0,1.3,0.2,2.5,0.1c3.6-0.5,10.3-0.4,10.3-0.4s1.4,0.6,3.5,0.5
											c-0.7-0.9-0.2-3.1,0.1-3.4c-2.2-0.2-3.5,0.2-3.5,0.2s-6.6-0.4-10.2-1.1C1323.9,512.4,1322.6,512.6,1322.6,512.6z"/>
										<path class="st46" d="M1335.3,515.2c0,0-6.6-0.1-10.2,0.4c-0.8,0.1-1.9,0-2.5-0.1v1.3c0,0,1.3,0.2,2.5,0.1
											c3.6-0.5,10.3-0.4,10.3-0.4s1.4,0.6,3.5,0.5c-0.2-0.3-0.3-0.7-0.3-1.2C1336.5,515.8,1335.3,515.2,1335.3,515.2z"/>
										<path class="st46" d="M1325,515.9l0.1-2.5c0,0,1,0.5,1,1.3C1326.1,515.6,1325,515.9,1325,515.9z"/>
										<path class="st30" d="M1386.9,522.1c-4-4.6-14.3-12-16.7-12.2c-2.4-0.3-10,0.3-11.5,0.5c-1.6,0.2-5,1.6-5.8,2.3
											c-1,0.8-1,3.2,0.8,2.7s7.6-0.8,7.6-0.8s-4.5,2.3-4.6,3.4c-0.1,1.2,0.5,1.5,0.5,1.5l2.4,0.2c0,0-2.3,0.7-2.3,2.1
											c0,0.7,1.4,1,2.4,1c-1.1,0.4-2.5,0.4-1.7,2c0.6,1.2,3.1,1.3,3.1,1.3s-1.8,0.5-1.8,1.5c-0.1,1,2.6,2.6,3.8,3
											c1.3,0.4,15.2,5.9,19.2,7.1c5.2,1.6,21.3,3.5,21.3,3.5l0.7-16.1L1386.9,522.1z"/>
									</g>
									<path class="st18" d="M1389.6,521.7l58.5,2.4l7.3-43.3c0,0,20.5-20.3,26.9,4.6c4.5,17.5-2.2,56.1-14.4,65.2
										c-10.9,8-69,3.5-69,3.5L1389.6,521.7z"/>
									<g>
										<rect x="1364.9" y="582.5" width="62" height="3.6"/>
										<polygon class="st18" points="1364.9,582.5 1377.5,574.5 1415.1,574.5 1426.8,582.5 										"/>
										<g>
											<path class="st30" d="M1386.8,580c0,0.9-2.5,1.5-5.5,1.5s-5.5-0.7-5.5-1.5s2.5-1.5,5.5-1.5S1386.8,579.1,1386.8,580z"/>
											<path class="st47" d="M1401.6,580c0,0.9-2.5,1.5-5.5,1.5s-5.5-0.7-5.5-1.5s2.5-1.5,5.5-1.5S1401.6,579.1,1401.6,580z"/>
											<path class="st48" d="M1417.2,580c0,0.9-2.5,1.5-5.5,1.5s-5.5-0.7-5.5-1.5s2.5-1.5,5.5-1.5S1417.2,579.1,1417.2,580z"/>
										</g>
										<g>
											<path class="st30" d="M1388.8,576.5c0,0.7-2.2,1.4-4.9,1.4s-4.9-0.6-4.9-1.4c0-0.8,2.2-1.4,4.9-1.4
												S1388.8,575.8,1388.8,576.5z"/>
											<path class="st47" d="M1402,576.5c0,0.7-2.2,1.4-4.9,1.4c-2.7,0-4.9-0.6-4.9-1.4c0-0.8,2.2-1.4,4.9-1.4
												C1399.8,575.2,1402,575.8,1402,576.5z"/>
											<path class="st48" d="M1416,576.5c0,0.7-2.2,1.4-4.9,1.4c-2.7,0-4.9-0.6-4.9-1.4c0-0.8,2.2-1.4,4.9-1.4
												C1413.8,575.2,1416,575.8,1416,576.5z"/>
										</g>
									</g>
									<path class="st24" d="M1419.5,574.2c-2,0.2-10.1,1.7-11.2,1.7c-1,0-2.6,1.6,1.8,2s9.3-0.1,12.6,0.3
										C1424.6,578.5,1419.5,574.2,1419.5,574.2z"/>
								</g>
							</g>
						</g>
					</g>
				</g>
			</g>
		</g>
	</g>
</g>
</svg>
